<svg width="105" height="105" viewBox="0 0 105 105" fill="#9AA1AC" xmlns="http://www.w3.org/2000/svg">
<path d="M26.6229 78.4626C19.7078 71.5907 15.8059 62.2532 15.7754 52.5044C15.7449 42.7555 19.5883 33.3939 26.4603 26.4788C33.3322 19.5638 42.6696 15.6618 52.4185 15.6313C62.1674 15.6008 71.529 19.4443 78.4441 26.3162C85.3591 33.1882 89.2611 42.5256 89.2916 52.2745C89.3221 62.0233 85.4786 71.385 78.6067 78.3C71.7347 85.2151 62.3973 89.117 52.6484 89.1475C42.8996 89.178 33.5379 85.3345 26.6229 78.4626ZM36.6095 50.1422C36.3045 50.1378 36.0016 50.1943 35.7186 50.3082C35.4357 50.4222 35.1782 50.5913 34.9613 50.8058C34.7444 51.0203 34.5724 51.2759 34.4553 51.5576C34.3382 51.8393 34.2784 52.1415 34.2794 52.4465C34.2803 52.7516 34.342 53.0534 34.4609 53.3343C34.5797 53.6153 34.7533 53.8698 34.9716 54.0829C35.1898 54.2961 35.4483 54.4636 35.732 54.5758C36.0157 54.6879 36.3189 54.7425 36.6239 54.7362L63.2396 54.653L54.2745 63.6743C53.845 64.1065 53.6048 64.6916 53.6067 65.3009C53.6086 65.9102 53.8525 66.4938 54.2847 66.9233C54.7168 67.3528 55.3019 67.593 55.9113 67.5911C56.5206 67.5892 57.1041 67.3453 57.5336 66.9131L70.408 53.958C70.8375 53.5258 71.0777 52.9407 71.0758 52.3314C71.0739 51.7221 70.83 51.1385 70.3978 50.709L57.4427 37.8347C57.0105 37.4052 56.4254 37.165 55.8161 37.1669C55.2068 37.1688 54.6232 37.4127 54.1937 37.8449C53.7642 38.2771 53.524 38.8622 53.5259 39.4715C53.5278 40.0808 53.7717 40.6644 54.2039 41.0939L63.2252 50.0589L36.6095 50.1422Z" fill="url(#paint0_linear)"/>
<defs>
<linearGradient id="paint0_linear" x1="78.6067" y1="78.3" x2="26.4603" y2="26.4788" gradientUnits="userSpaceOnUse">
<stop stop-color="#9AA1AC"/>
<stop offset="0.0001" stop-color="#9AA1AC"/>
<stop offset="1" stop-color="#9AA1AC"/>
</linearGradient>
</defs>
</svg>
