<svg width="46" height="46" viewBox="0 0 46 46" fill="none" xmlns="http://www.w3.org/2000/svg">
<path d="M32.375 0.5C29.0131 0.5 25.9663 1.13 23.585 2.31687C21.2056 3.50375 19.25 5.43688 19.25 8V15.5C19.25 15.7419 19.3306 15.9762 19.3681 16.2031C17.4913 15.7262 15.5614 15.4899 13.625 15.5C10.2631 15.5 7.21625 16.13 4.835 17.3169C2.45562 18.5037 0.5 20.4369 0.5 23V38C0.5 40.5631 2.45563 42.4963 4.83688 43.6831C7.21625 44.87 10.2631 45.5 13.625 45.5C16.9869 45.5 20.0337 44.87 22.415 43.6831C24.7925 42.4963 26.75 40.5631 26.75 38V37.2388C28.5842 37.7346 30.475 37.9905 32.375 38C35.7369 38 38.7838 37.37 41.165 36.1831C43.5425 34.9963 45.5 33.0631 45.5 30.5V8C45.5 5.43688 43.5444 3.50375 41.1631 2.31687C38.7856 1.13 35.7388 0.5 32.375 0.5ZM32.375 4.25C35.2306 4.25 37.7731 4.865 39.4644 5.71438C41.1575 6.56375 41.75 7.45813 41.75 8C41.75 8.54375 41.1575 9.43625 39.4644 10.2856C37.775 11.135 35.2306 11.75 32.375 11.75C29.5194 11.75 26.9769 11.135 25.2856 10.2856C23.5925 9.43625 23 8.54187 23 8C23 7.45625 23.5925 6.56375 25.2856 5.71438C26.975 4.865 29.5194 4.25 32.375 4.25ZM23 13.3325C23.1969 13.4412 23.3806 13.5819 23.5869 13.6831C25.9662 14.87 29.0131 15.5 32.375 15.5C35.7369 15.5 38.7838 14.87 41.165 13.6831C41.3694 13.5819 41.5531 13.4412 41.75 13.3325V15.5C41.75 16.0437 41.1575 16.9363 39.4644 17.7856C37.7731 18.635 35.2306 19.25 32.375 19.25C29.5194 19.25 26.9769 18.635 25.2856 17.7856C23.5925 16.9363 23 16.0419 23 15.5V13.3325ZM13.625 19.25C16.4806 19.25 19.0231 19.865 20.7144 20.7144C22.4075 21.5637 23 22.4581 23 23C23 23.5438 22.4075 24.4363 20.7144 25.2856C19.0231 26.135 16.4806 26.75 13.625 26.75C10.7694 26.75 8.22687 26.135 6.53562 25.2856C4.8425 24.4363 4.25 23.5419 4.25 23C4.25 22.4562 4.8425 21.5637 6.53562 20.7144C8.225 19.865 10.7694 19.25 13.625 19.25ZM41.75 20.8325V23C41.75 23.5438 41.1575 24.4363 39.4644 25.2856C37.7731 26.135 35.2306 26.75 32.375 26.75C30.465 26.7604 28.5657 26.4634 26.75 25.8706V23C26.75 22.7581 26.6694 22.5238 26.6319 22.2969C28.3756 22.7506 30.3088 23 32.375 23C35.7369 23 38.7838 22.37 41.165 21.1831C41.3694 21.0819 41.5531 20.9412 41.75 20.8325ZM4.25 28.3325C4.44688 28.4412 4.63063 28.5819 4.83688 28.6831C7.21625 29.87 10.2631 30.5 13.625 30.5C16.9869 30.5 20.0337 29.87 22.415 28.6831C22.6194 28.5819 22.8031 28.4412 23 28.3325V30.5C23 31.0438 22.4075 31.9363 20.7144 32.7856C19.0231 33.635 16.4806 34.25 13.625 34.25C10.7694 34.25 8.22687 33.635 6.53562 32.7856C4.8425 31.9363 4.25 31.0419 4.25 30.5V28.3325ZM41.75 28.3325V30.5C41.75 31.0438 41.1575 31.9363 39.4644 32.7856C37.7731 33.635 35.2306 34.25 32.375 34.25C30.2431 34.25 28.3175 33.95 26.75 33.4287V29.7969C28.4713 30.2506 30.3463 30.5 32.375 30.5C35.7369 30.5 38.7838 29.87 41.165 28.6831C41.3694 28.5819 41.5531 28.4412 41.75 28.3325ZM4.25 35.8325C4.44688 35.9412 4.63063 36.0819 4.83688 36.1831C7.21625 37.37 10.2631 38 13.625 38C16.9869 38 20.0337 37.37 22.415 36.1831C22.6194 36.0819 22.8031 35.9412 23 35.8325V38C23 38.5438 22.4075 39.4362 20.7144 40.2856C19.0231 41.135 16.4806 41.75 13.625 41.75C10.7694 41.75 8.22687 41.135 6.53562 40.2856C4.8425 39.4362 4.25 38.5419 4.25 38V35.8325Z" fill="url(#paint0_linear)"/>
<defs>
<linearGradient id="paint0_linear" x1="23" y1="0.5" x2="23" y2="45.5" gradientUnits="userSpaceOnUse">
<stop stop-color="#2DD2FF"/>
<stop offset="1" stop-color="#2CFEE1"/>
</linearGradient>
</defs>
</svg>
