<svg width="48" height="48" viewBox="0 0 48 48" fill="none" xmlns="http://www.w3.org/2000/svg">
<path d="M47.5 24C47.5 36.9787 36.9787 47.5 24 47.5C11.0213 47.5 0.5 36.9787 0.5 24C0.5 11.0213 11.0213 0.5 24 0.5C36.9787 0.5 47.5 11.0213 47.5 24Z" stroke="url(#paint0_linear)"/>
<path fill-rule="evenodd" clip-rule="evenodd" d="M12.7843 34.5721C13.2908 34.709 13.8132 34.778 14.3378 34.777C15.3496 34.7663 16.3416 34.4951 17.2182 33.9895C17.9047 33.5924 18.5053 33.0626 18.985 32.4311C19.4646 31.7995 19.8139 31.0788 20.0123 30.3108C20.1586 29.7637 20.6543 29.3831 21.2206 29.3831H25.764C26.3281 29.3831 26.8142 29.7799 26.9273 30.3325C27.1256 31.1003 27.4748 31.8211 27.9545 32.4526C28.4341 33.0842 29.0348 33.614 29.7213 34.0111C30.3919 34.3995 31.1329 34.651 31.9014 34.751C32.6699 34.851 33.4505 34.7975 34.1982 34.5936C35.7251 34.1626 37.0211 33.1481 37.8064 31.7696C38.5915 30.3909 38.8029 28.7587 38.3947 27.2256L35.8811 17.6675C35.6811 16.9003 35.3313 16.1803 34.8517 15.5489C34.3722 14.9176 33.7725 14.3874 33.0871 13.9889C32.4165 13.6004 31.6754 13.349 30.907 13.249C30.1384 13.149 29.3578 13.2025 28.6102 13.4063C27.8145 13.6252 27.0734 14.0079 26.4343 14.53C26.1592 14.7547 25.9057 15.0031 25.6763 15.2718C25.117 15.9271 24.3563 16.4377 23.4947 16.4377C22.6353 16.4377 21.8759 15.9297 21.3177 15.2763C21.0875 15.0068 20.8331 14.7577 20.5571 14.5323C19.9184 14.0104 19.178 13.627 18.3833 13.4063C17.6356 13.2025 16.855 13.149 16.0864 13.249C15.318 13.349 14.5769 13.6004 13.9063 13.9889C13.2176 14.3884 12.6156 14.9215 12.1358 15.557C11.656 16.1924 11.308 16.9173 11.1123 17.6891L8.59869 27.2256C8.19655 28.7543 8.40958 30.3796 9.19209 31.7531C9.97461 33.1266 11.2643 34.1385 12.7843 34.5721ZM14.9851 15.8551C15.5503 15.5321 16.1896 15.3611 16.8406 15.3589C17.1685 15.3595 17.4949 15.403 17.8115 15.4884C18.3991 15.6547 18.9384 15.9588 19.385 16.3752C19.8315 16.7918 20.1723 17.3087 20.379 17.8832C20.5344 18.3107 20.9407 18.5953 21.3956 18.5953H25.5978C26.0527 18.5953 26.459 18.3107 26.6144 17.8832C26.8193 17.3095 27.1582 16.7928 27.6029 16.3764C28.0475 15.9598 28.5851 15.6554 29.1712 15.4884C29.6449 15.36 30.1394 15.3263 30.6262 15.3892C31.1131 15.4521 31.5827 15.6105 32.0083 15.8551C32.4469 16.1113 32.83 16.4521 33.1356 16.8576C33.4412 17.2632 33.663 17.7256 33.7884 18.2177L36.3018 27.7542C36.5711 28.7354 36.4423 29.7832 35.9434 30.67C35.4444 31.5568 34.6157 32.2109 33.6373 32.49C33.1635 32.6184 32.6689 32.6522 32.1821 32.5892C31.6952 32.5263 31.2256 32.3679 30.8001 32.1232C30.3606 31.8668 29.9763 31.5261 29.6689 31.1206C29.3616 30.7152 29.1374 30.2531 29.0093 29.7607C28.6218 28.2679 27.2744 27.2256 25.7322 27.2256H21.2641C19.7189 27.2256 18.3675 28.2666 17.9733 29.7607C17.8474 30.254 17.6241 30.7171 17.3165 31.1229C17.009 31.5285 16.6234 31.8686 16.1826 32.1232C15.759 32.3682 15.2913 32.5267 14.806 32.5897C14.3209 32.6526 13.8281 32.6188 13.3561 32.49C12.3788 32.2082 11.5512 31.5543 11.0509 30.6687C10.5506 29.7831 10.4177 28.7367 10.6807 27.7542L13.1943 18.2177C13.4553 17.2243 14.0992 16.3749 14.9851 15.8551ZM15.8253 23.6256C16.1802 23.8626 16.5973 23.9892 17.024 23.9892C17.5962 23.9892 18.145 23.7618 18.5496 23.3572C18.9543 22.9526 19.1815 22.4039 19.1815 21.8316C19.1815 21.4049 19.055 20.9877 18.8179 20.6329C18.5809 20.2782 18.2438 20.0015 17.8496 19.8383C17.4554 19.675 17.0216 19.6323 16.6031 19.7155C16.1845 19.7988 15.8001 20.0042 15.4984 20.306C15.1967 20.6077 14.9911 20.9922 14.9078 21.4107C14.8246 21.8292 14.8673 22.263 15.0306 22.6572C15.1939 23.0515 15.4705 23.3885 15.8253 23.6256ZM29.9696 20.7528C30.5654 20.7528 31.0484 20.2698 31.0484 19.674C31.0484 19.0782 30.5654 18.5952 29.9696 18.5952C29.3738 18.5952 28.8908 19.0782 28.8908 19.674C28.8908 20.2698 29.3738 20.7528 29.9696 20.7528ZM31.0484 23.9891C31.0484 24.585 30.5654 25.0679 29.9696 25.0679C29.3738 25.0679 28.8908 24.585 28.8908 23.9891C28.8908 23.3933 29.3738 22.9104 29.9696 22.9104C30.5654 22.9104 31.0484 23.3933 31.0484 23.9891ZM27.8119 22.9104C28.4077 22.9104 28.8907 22.4274 28.8907 21.8316C28.8907 21.2357 28.4077 20.7528 27.8119 20.7528C27.2161 20.7528 26.7331 21.2357 26.7331 21.8316C26.7331 22.4274 27.2161 22.9104 27.8119 22.9104ZM33.2058 21.8316C33.2058 22.4274 32.7229 22.9104 32.127 22.9104C31.5312 22.9104 31.0482 22.4274 31.0482 21.8316C31.0482 21.2357 31.5312 20.7528 32.127 20.7528C32.7229 20.7528 33.2058 21.2357 33.2058 21.8316Z" fill="url(#paint1_radial)"/>
<path fill-rule="evenodd" clip-rule="evenodd" d="M12.7843 34.5721C13.2908 34.709 13.8132 34.778 14.3378 34.777C15.3496 34.7663 16.3416 34.4951 17.2182 33.9895C17.9047 33.5924 18.5053 33.0626 18.985 32.4311C19.4646 31.7995 19.8139 31.0788 20.0123 30.3108C20.1586 29.7637 20.6543 29.3831 21.2206 29.3831H25.764C26.3281 29.3831 26.8142 29.7799 26.9273 30.3325C27.1256 31.1003 27.4748 31.8211 27.9545 32.4526C28.4341 33.0842 29.0348 33.614 29.7213 34.0111C30.3919 34.3995 31.1329 34.651 31.9014 34.751C32.6699 34.851 33.4505 34.7975 34.1982 34.5936C35.7251 34.1626 37.0211 33.1481 37.8064 31.7696C38.5915 30.3909 38.8029 28.7587 38.3947 27.2256L35.8811 17.6675C35.6811 16.9003 35.3313 16.1803 34.8517 15.5489C34.3722 14.9176 33.7725 14.3874 33.0871 13.9889C32.4165 13.6004 31.6754 13.349 30.907 13.249C30.1384 13.149 29.3578 13.2025 28.6102 13.4063C27.8145 13.6252 27.0734 14.0079 26.4343 14.53C26.1592 14.7547 25.9057 15.0031 25.6763 15.2718C25.117 15.9271 24.3563 16.4377 23.4947 16.4377C22.6353 16.4377 21.8759 15.9297 21.3177 15.2763C21.0875 15.0068 20.8331 14.7577 20.5571 14.5323C19.9184 14.0104 19.178 13.627 18.3833 13.4063C17.6356 13.2025 16.855 13.149 16.0864 13.249C15.318 13.349 14.5769 13.6004 13.9063 13.9889C13.2176 14.3884 12.6156 14.9215 12.1358 15.557C11.656 16.1924 11.308 16.9173 11.1123 17.6891L8.59869 27.2256C8.19655 28.7543 8.40958 30.3796 9.19209 31.7531C9.97461 33.1266 11.2643 34.1385 12.7843 34.5721ZM14.9851 15.8551C15.5503 15.5321 16.1896 15.3611 16.8406 15.3589C17.1685 15.3595 17.4949 15.403 17.8115 15.4884C18.3991 15.6547 18.9384 15.9588 19.385 16.3752C19.8315 16.7918 20.1723 17.3087 20.379 17.8832C20.5344 18.3107 20.9407 18.5953 21.3956 18.5953H25.5978C26.0527 18.5953 26.459 18.3107 26.6144 17.8832C26.8193 17.3095 27.1582 16.7928 27.6029 16.3764C28.0475 15.9598 28.5851 15.6554 29.1712 15.4884C29.6449 15.36 30.1394 15.3263 30.6262 15.3892C31.1131 15.4521 31.5827 15.6105 32.0083 15.8551C32.4469 16.1113 32.83 16.4521 33.1356 16.8576C33.4412 17.2632 33.663 17.7256 33.7884 18.2177L36.3018 27.7542C36.5711 28.7354 36.4423 29.7832 35.9434 30.67C35.4444 31.5568 34.6157 32.2109 33.6373 32.49C33.1635 32.6184 32.6689 32.6522 32.1821 32.5892C31.6952 32.5263 31.2256 32.3679 30.8001 32.1232C30.3606 31.8668 29.9763 31.5261 29.6689 31.1206C29.3616 30.7152 29.1374 30.2531 29.0093 29.7607C28.6218 28.2679 27.2744 27.2256 25.7322 27.2256H21.2641C19.7189 27.2256 18.3675 28.2666 17.9733 29.7607C17.8474 30.254 17.6241 30.7171 17.3165 31.1229C17.009 31.5285 16.6234 31.8686 16.1826 32.1232C15.759 32.3682 15.2913 32.5267 14.806 32.5897C14.3209 32.6526 13.8281 32.6188 13.3561 32.49C12.3788 32.2082 11.5512 31.5543 11.0509 30.6687C10.5506 29.7831 10.4177 28.7367 10.6807 27.7542L13.1943 18.2177C13.4553 17.2243 14.0992 16.3749 14.9851 15.8551ZM15.8253 23.6256C16.1802 23.8626 16.5973 23.9892 17.024 23.9892C17.5962 23.9892 18.145 23.7618 18.5496 23.3572C18.9543 22.9526 19.1815 22.4039 19.1815 21.8316C19.1815 21.4049 19.055 20.9877 18.8179 20.6329C18.5809 20.2782 18.2438 20.0015 17.8496 19.8383C17.4554 19.675 17.0216 19.6323 16.6031 19.7155C16.1845 19.7988 15.8001 20.0042 15.4984 20.306C15.1967 20.6077 14.9911 20.9922 14.9078 21.4107C14.8246 21.8292 14.8673 22.263 15.0306 22.6572C15.1939 23.0515 15.4705 23.3885 15.8253 23.6256ZM29.9696 20.7528C30.5654 20.7528 31.0484 20.2698 31.0484 19.674C31.0484 19.0782 30.5654 18.5952 29.9696 18.5952C29.3738 18.5952 28.8908 19.0782 28.8908 19.674C28.8908 20.2698 29.3738 20.7528 29.9696 20.7528ZM31.0484 23.9891C31.0484 24.585 30.5654 25.0679 29.9696 25.0679C29.3738 25.0679 28.8908 24.585 28.8908 23.9891C28.8908 23.3933 29.3738 22.9104 29.9696 22.9104C30.5654 22.9104 31.0484 23.3933 31.0484 23.9891ZM27.8119 22.9104C28.4077 22.9104 28.8907 22.4274 28.8907 21.8316C28.8907 21.2357 28.4077 20.7528 27.8119 20.7528C27.2161 20.7528 26.7331 21.2357 26.7331 21.8316C26.7331 22.4274 27.2161 22.9104 27.8119 22.9104ZM33.2058 21.8316C33.2058 22.4274 32.7229 22.9104 32.127 22.9104C31.5312 22.9104 31.0482 22.4274 31.0482 21.8316C31.0482 21.2357 31.5312 20.7528 32.127 20.7528C32.7229 20.7528 33.2058 21.2357 33.2058 21.8316Z" fill="url(#paint2_angular)" style="mix-blend-mode:difference"/>
<path fill-rule="evenodd" clip-rule="evenodd" d="M12.7843 34.5721C13.2908 34.709 13.8132 34.778 14.3378 34.777C15.3496 34.7663 16.3416 34.4951 17.2182 33.9895C17.9047 33.5924 18.5053 33.0626 18.985 32.4311C19.4646 31.7995 19.8139 31.0788 20.0123 30.3108C20.1586 29.7637 20.6543 29.3831 21.2206 29.3831H25.764C26.3281 29.3831 26.8142 29.7799 26.9273 30.3325C27.1256 31.1003 27.4748 31.8211 27.9545 32.4526C28.4341 33.0842 29.0348 33.614 29.7213 34.0111C30.3919 34.3995 31.1329 34.651 31.9014 34.751C32.6699 34.851 33.4505 34.7975 34.1982 34.5936C35.7251 34.1626 37.0211 33.1481 37.8064 31.7696C38.5915 30.3909 38.8029 28.7587 38.3947 27.2256L35.8811 17.6675C35.6811 16.9003 35.3313 16.1803 34.8517 15.5489C34.3722 14.9176 33.7725 14.3874 33.0871 13.9889C32.4165 13.6004 31.6754 13.349 30.907 13.249C30.1384 13.149 29.3578 13.2025 28.6102 13.4063C27.8145 13.6252 27.0734 14.0079 26.4343 14.53C26.1592 14.7547 25.9057 15.0031 25.6763 15.2718C25.117 15.9271 24.3563 16.4377 23.4947 16.4377C22.6353 16.4377 21.8759 15.9297 21.3177 15.2763C21.0875 15.0068 20.8331 14.7577 20.5571 14.5323C19.9184 14.0104 19.178 13.627 18.3833 13.4063C17.6356 13.2025 16.855 13.149 16.0864 13.249C15.318 13.349 14.5769 13.6004 13.9063 13.9889C13.2176 14.3884 12.6156 14.9215 12.1358 15.557C11.656 16.1924 11.308 16.9173 11.1123 17.6891L8.59869 27.2256C8.19655 28.7543 8.40958 30.3796 9.19209 31.7531C9.97461 33.1266 11.2643 34.1385 12.7843 34.5721ZM14.9851 15.8551C15.5503 15.5321 16.1896 15.3611 16.8406 15.3589C17.1685 15.3595 17.4949 15.403 17.8115 15.4884C18.3991 15.6547 18.9384 15.9588 19.385 16.3752C19.8315 16.7918 20.1723 17.3087 20.379 17.8832C20.5344 18.3107 20.9407 18.5953 21.3956 18.5953H25.5978C26.0527 18.5953 26.459 18.3107 26.6144 17.8832C26.8193 17.3095 27.1582 16.7928 27.6029 16.3764C28.0475 15.9598 28.5851 15.6554 29.1712 15.4884C29.6449 15.36 30.1394 15.3263 30.6262 15.3892C31.1131 15.4521 31.5827 15.6105 32.0083 15.8551C32.4469 16.1113 32.83 16.4521 33.1356 16.8576C33.4412 17.2632 33.663 17.7256 33.7884 18.2177L36.3018 27.7542C36.5711 28.7354 36.4423 29.7832 35.9434 30.67C35.4444 31.5568 34.6157 32.2109 33.6373 32.49C33.1635 32.6184 32.6689 32.6522 32.1821 32.5892C31.6952 32.5263 31.2256 32.3679 30.8001 32.1232C30.3606 31.8668 29.9763 31.5261 29.6689 31.1206C29.3616 30.7152 29.1374 30.2531 29.0093 29.7607C28.6218 28.2679 27.2744 27.2256 25.7322 27.2256H21.2641C19.7189 27.2256 18.3675 28.2666 17.9733 29.7607C17.8474 30.254 17.6241 30.7171 17.3165 31.1229C17.009 31.5285 16.6234 31.8686 16.1826 32.1232C15.759 32.3682 15.2913 32.5267 14.806 32.5897C14.3209 32.6526 13.8281 32.6188 13.3561 32.49C12.3788 32.2082 11.5512 31.5543 11.0509 30.6687C10.5506 29.7831 10.4177 28.7367 10.6807 27.7542L13.1943 18.2177C13.4553 17.2243 14.0992 16.3749 14.9851 15.8551ZM15.8253 23.6256C16.1802 23.8626 16.5973 23.9892 17.024 23.9892C17.5962 23.9892 18.145 23.7618 18.5496 23.3572C18.9543 22.9526 19.1815 22.4039 19.1815 21.8316C19.1815 21.4049 19.055 20.9877 18.8179 20.6329C18.5809 20.2782 18.2438 20.0015 17.8496 19.8383C17.4554 19.675 17.0216 19.6323 16.6031 19.7155C16.1845 19.7988 15.8001 20.0042 15.4984 20.306C15.1967 20.6077 14.9911 20.9922 14.9078 21.4107C14.8246 21.8292 14.8673 22.263 15.0306 22.6572C15.1939 23.0515 15.4705 23.3885 15.8253 23.6256ZM29.9696 20.7528C30.5654 20.7528 31.0484 20.2698 31.0484 19.674C31.0484 19.0782 30.5654 18.5952 29.9696 18.5952C29.3738 18.5952 28.8908 19.0782 28.8908 19.674C28.8908 20.2698 29.3738 20.7528 29.9696 20.7528ZM31.0484 23.9891C31.0484 24.585 30.5654 25.0679 29.9696 25.0679C29.3738 25.0679 28.8908 24.585 28.8908 23.9891C28.8908 23.3933 29.3738 22.9104 29.9696 22.9104C30.5654 22.9104 31.0484 23.3933 31.0484 23.9891ZM27.8119 22.9104C28.4077 22.9104 28.8907 22.4274 28.8907 21.8316C28.8907 21.2357 28.4077 20.7528 27.8119 20.7528C27.2161 20.7528 26.7331 21.2357 26.7331 21.8316C26.7331 22.4274 27.2161 22.9104 27.8119 22.9104ZM33.2058 21.8316C33.2058 22.4274 32.7229 22.9104 32.127 22.9104C31.5312 22.9104 31.0482 22.4274 31.0482 21.8316C31.0482 21.2357 31.5312 20.7528 32.127 20.7528C32.7229 20.7528 33.2058 21.2357 33.2058 21.8316Z" fill="url(#paint3_angular)" style="mix-blend-mode:screen"/>
<defs>
<linearGradient id="paint0_linear" x1="2.14286" y1="-3" x2="56.0813" y2="29.7484" gradientUnits="userSpaceOnUse">
<stop stop-color="#1F50FE"/>
<stop offset="0.280706" stop-color="#C1C0C8"/>
<stop offset="0.6237" stop-color="white"/>
<stop offset="1" stop-color="#E79BFE"/>
</linearGradient>
<radialGradient id="paint1_radial" cx="0" cy="0" r="1" gradientUnits="userSpaceOnUse" gradientTransform="translate(5.20587 -11.91) rotate(56.7665) scale(58.1031 100.109)">
<stop stop-color="#F7D4CB"/>
<stop offset="0.206431" stop-color="#FFFAE2"/>
<stop offset="0.420706" stop-color="#F58AFE"/>
<stop offset="0.62264" stop-color="#FFD5B7"/>
<stop offset="0.804942" stop-color="#FFFEE2"/>
<stop offset="1" stop-color="#576DFF"/>
</radialGradient>
<radialGradient id="paint2_angular" cx="0" cy="0" r="1" gradientUnits="userSpaceOnUse" gradientTransform="translate(23.499 24) rotate(90) scale(10.8 15.0991)">
<stop stop-color="white"/>
<stop offset="0.143445"/>
<stop offset="0.221575" stop-color="white"/>
<stop offset="0.39346"/>
<stop offset="0.539302" stop-color="white"/>
<stop offset="0.705978"/>
<stop offset="0.794525" stop-color="white"/>
<stop offset="0.919533"/>
</radialGradient>
<radialGradient id="paint3_angular" cx="0" cy="0" r="1" gradientUnits="userSpaceOnUse" gradientTransform="translate(23.499 24) rotate(90) scale(10.8 15.0991)">
<stop stop-color="white"/>
<stop offset="0.143445"/>
<stop offset="0.221575" stop-color="white"/>
<stop offset="0.39346"/>
<stop offset="0.539302" stop-color="white"/>
<stop offset="0.705978"/>
<stop offset="0.794525" stop-color="white"/>
<stop offset="0.919533"/>
</radialGradient>
</defs>
</svg>
