<svg width="40" height="40" viewBox="0 0 40 40" fill="none" xmlns="http://www.w3.org/2000/svg">
<circle cx="20" cy="20" r="18.5" stroke="url(#paint0_linear)" stroke-width="3"/>
<path d="M20 30C23.976 30 28 28.626 28 26V14C28 11.374 23.976 10 20 10C16.024 10 12 11.374 12 14V26C12 28.626 16.024 30 20 30ZM20 28C16.278 28 14 26.705 14 26V24.732C15.541 25.57 17.777 26 20 26C22.223 26 24.459 25.57 26 24.732V26C26 26.705 23.722 28 20 28ZM20 12C23.722 12 26 13.295 26 14C26 14.705 23.722 16 20 16C16.278 16 14 14.705 14 14C14 13.295 16.278 12 20 12ZM14 16.732C15.541 17.57 17.777 18 20 18C22.223 18 24.459 17.57 26 16.732V18C26 18.705 23.722 20 20 20C16.278 20 14 18.705 14 18V16.732ZM14 20.732C15.541 21.57 17.777 22 20 22C22.223 22 24.459 21.57 26 20.732V22C26 22.705 23.722 24 20 24C16.278 24 14 22.705 14 22V20.732Z" fill="url(#paint1_linear)"/>
<defs>
<linearGradient id="paint0_linear" x1="20" y1="0" x2="20" y2="40" gradientUnits="userSpaceOnUse">
<stop stop-color="#2DD2FF"/>
<stop offset="1" stop-color="#2CFEE1"/>
</linearGradient>
<linearGradient id="paint1_linear" x1="20" y1="10" x2="20" y2="30" gradientUnits="userSpaceOnUse">
<stop stop-color="#2DD2FF"/>
<stop offset="1" stop-color="#2CFEE1"/>
</linearGradient>
</defs>
</svg>
