<svg width="48" height="48" viewBox="0 0 48 48" fill="none" xmlns="http://www.w3.org/2000/svg">
<path d="M47.5 24C47.5 36.9787 36.9787 47.5 24 47.5C11.0213 47.5 0.5 36.9787 0.5 24C0.5 11.0213 11.0213 0.5 24 0.5C36.9787 0.5 47.5 11.0213 47.5 24Z" stroke="url(#paint0_linear)"/>
<path d="M24 36.973C29.158 36.973 34.3783 35.1905 34.3783 31.7838V16.2162C34.3783 12.8095 29.158 11.0271 24 11.0271C18.8419 11.0271 13.6216 12.8095 13.6216 16.2162V31.7838C13.6216 35.1905 18.8419 36.973 24 36.973ZM24 34.3784C19.1714 34.3784 16.2162 32.6984 16.2162 31.7838C16.2162 31.0421 17.0209 30.5525 17.7196 30.8018C19.5423 31.4521 21.7761 31.7838 24 31.7838C26.2238 31.7838 28.4576 31.4521 30.2804 30.8018C30.979 30.5525 31.7837 31.0421 31.7837 31.7838C31.7837 32.6984 28.8285 34.3784 24 34.3784ZM24 13.6216C28.8285 13.6216 31.7837 15.3016 31.7837 16.2162C31.7837 17.1308 28.8285 18.8108 24 18.8108C19.1714 18.8108 16.2162 17.1308 16.2162 16.2162C16.2162 15.3016 19.1714 13.6216 24 13.6216ZM16.2162 21.4054C16.2162 20.6637 17.0209 20.1741 17.7196 20.4234C19.5423 21.0737 21.7761 21.4054 24 21.4054C26.2238 21.4054 28.4576 21.0737 30.2804 20.4234C30.979 20.1741 31.7837 20.6637 31.7837 21.4054C31.7837 22.32 28.8285 24 24 24C19.1714 24 16.2162 22.32 16.2162 21.4054ZM16.2162 26.5946C16.2162 25.8529 17.0209 25.3633 17.7196 25.6126C19.5423 26.2629 21.7761 26.5946 24 26.5946C26.2238 26.5946 28.4576 26.2629 30.2804 25.6126C30.979 25.3633 31.7837 25.8529 31.7837 26.5946C31.7837 27.5092 28.8285 29.1892 24 29.1892C19.1714 29.1892 16.2162 27.5092 16.2162 26.5946Z" fill="url(#paint1_radial)"/>
<path d="M24 36.973C29.158 36.973 34.3783 35.1905 34.3783 31.7838V16.2162C34.3783 12.8095 29.158 11.0271 24 11.0271C18.8419 11.0271 13.6216 12.8095 13.6216 16.2162V31.7838C13.6216 35.1905 18.8419 36.973 24 36.973ZM24 34.3784C19.1714 34.3784 16.2162 32.6984 16.2162 31.7838C16.2162 31.0421 17.0209 30.5525 17.7196 30.8018C19.5423 31.4521 21.7761 31.7838 24 31.7838C26.2238 31.7838 28.4576 31.4521 30.2804 30.8018C30.979 30.5525 31.7837 31.0421 31.7837 31.7838C31.7837 32.6984 28.8285 34.3784 24 34.3784ZM24 13.6216C28.8285 13.6216 31.7837 15.3016 31.7837 16.2162C31.7837 17.1308 28.8285 18.8108 24 18.8108C19.1714 18.8108 16.2162 17.1308 16.2162 16.2162C16.2162 15.3016 19.1714 13.6216 24 13.6216ZM16.2162 21.4054C16.2162 20.6637 17.0209 20.1741 17.7196 20.4234C19.5423 21.0737 21.7761 21.4054 24 21.4054C26.2238 21.4054 28.4576 21.0737 30.2804 20.4234C30.979 20.1741 31.7837 20.6637 31.7837 21.4054C31.7837 22.32 28.8285 24 24 24C19.1714 24 16.2162 22.32 16.2162 21.4054ZM16.2162 26.5946C16.2162 25.8529 17.0209 25.3633 17.7196 25.6126C19.5423 26.2629 21.7761 26.5946 24 26.5946C26.2238 26.5946 28.4576 26.2629 30.2804 25.6126C30.979 25.3633 31.7837 25.8529 31.7837 26.5946C31.7837 27.5092 28.8285 29.1892 24 29.1892C19.1714 29.1892 16.2162 27.5092 16.2162 26.5946Z" fill="url(#paint2_angular)" style="mix-blend-mode:difference"/>
<path d="M24 36.973C29.158 36.973 34.3783 35.1905 34.3783 31.7838V16.2162C34.3783 12.8095 29.158 11.0271 24 11.0271C18.8419 11.0271 13.6216 12.8095 13.6216 16.2162V31.7838C13.6216 35.1905 18.8419 36.973 24 36.973ZM24 34.3784C19.1714 34.3784 16.2162 32.6984 16.2162 31.7838C16.2162 31.0421 17.0209 30.5525 17.7196 30.8018C19.5423 31.4521 21.7761 31.7838 24 31.7838C26.2238 31.7838 28.4576 31.4521 30.2804 30.8018C30.979 30.5525 31.7837 31.0421 31.7837 31.7838C31.7837 32.6984 28.8285 34.3784 24 34.3784ZM24 13.6216C28.8285 13.6216 31.7837 15.3016 31.7837 16.2162C31.7837 17.1308 28.8285 18.8108 24 18.8108C19.1714 18.8108 16.2162 17.1308 16.2162 16.2162C16.2162 15.3016 19.1714 13.6216 24 13.6216ZM16.2162 21.4054C16.2162 20.6637 17.0209 20.1741 17.7196 20.4234C19.5423 21.0737 21.7761 21.4054 24 21.4054C26.2238 21.4054 28.4576 21.0737 30.2804 20.4234C30.979 20.1741 31.7837 20.6637 31.7837 21.4054C31.7837 22.32 28.8285 24 24 24C19.1714 24 16.2162 22.32 16.2162 21.4054ZM16.2162 26.5946C16.2162 25.8529 17.0209 25.3633 17.7196 25.6126C19.5423 26.2629 21.7761 26.5946 24 26.5946C26.2238 26.5946 28.4576 26.2629 30.2804 25.6126C30.979 25.3633 31.7837 25.8529 31.7837 26.5946C31.7837 27.5092 28.8285 29.1892 24 29.1892C19.1714 29.1892 16.2162 27.5092 16.2162 26.5946Z" fill="url(#paint3_angular)" style="mix-blend-mode:screen"/>
<defs>
<linearGradient id="paint0_linear" x1="2.14286" y1="-3" x2="56.0813" y2="29.7484" gradientUnits="userSpaceOnUse">
<stop stop-color="#1F50FE"/>
<stop offset="0.280706" stop-color="#C1C0C8"/>
<stop offset="0.6237" stop-color="white"/>
<stop offset="1" stop-color="#E79BFE"/>
</linearGradient>
<radialGradient id="paint1_radial" cx="0" cy="0" r="1" gradientUnits="userSpaceOnUse" gradientTransform="translate(11.4262 -19.1351) rotate(69.4475) scale(62.3467 77.0292)">
<stop stop-color="#F7D4CB"/>
<stop offset="0.206431" stop-color="#FFFAE2"/>
<stop offset="0.420706" stop-color="#F58AFE"/>
<stop offset="0.62264" stop-color="#FFD5B7"/>
<stop offset="0.804942" stop-color="#FFFEE2"/>
<stop offset="1" stop-color="#576DFF"/>
</radialGradient>
<radialGradient id="paint2_angular" cx="0" cy="0" r="1" gradientUnits="userSpaceOnUse" gradientTransform="translate(24 24) rotate(90) scale(12.973 10.3784)">
<stop stop-color="white"/>
<stop offset="0.143445"/>
<stop offset="0.221575" stop-color="white"/>
<stop offset="0.39346"/>
<stop offset="0.539302" stop-color="white"/>
<stop offset="0.705978"/>
<stop offset="0.794525" stop-color="white"/>
<stop offset="0.919533"/>
</radialGradient>
<radialGradient id="paint3_angular" cx="0" cy="0" r="1" gradientUnits="userSpaceOnUse" gradientTransform="translate(24 24) rotate(90) scale(12.973 10.3784)">
<stop stop-color="white"/>
<stop offset="0.143445"/>
<stop offset="0.221575" stop-color="white"/>
<stop offset="0.39346"/>
<stop offset="0.539302" stop-color="white"/>
<stop offset="0.705978"/>
<stop offset="0.794525" stop-color="white"/>
<stop offset="0.919533"/>
</radialGradient>
</defs>
</svg>
