<svg width="48" height="48" viewBox="0 0 48 48" fill="none" xmlns="http://www.w3.org/2000/svg">
<path fill-rule="evenodd" clip-rule="evenodd" d="M29.081 11.0438C29.081 12.1207 29.9541 12.9938 31.031 12.9938H34.1999C34.7391 12.9938 35.1747 13.4295 35.1747 13.9688V34.2C35.1747 34.7393 34.7391 35.1749 34.1999 35.1749H11.7747C11.2355 35.1749 10.7998 34.7393 10.7998 34.2V13.9688C10.7998 13.4295 11.2355 12.9938 11.7747 12.9938H14.9436C16.0205 12.9938 16.8936 12.1207 16.8936 11.0438C16.8936 10.9097 17.0033 10.8 17.1373 10.8H18.8436C18.9776 10.8 19.0873 10.9097 19.0873 11.0438C19.0873 12.1207 19.9603 12.9938 21.0373 12.9938H24.9373C26.0143 12.9938 26.8873 12.1207 26.8873 11.0438C26.8873 10.9097 26.997 10.8 27.131 10.8H28.8373C28.9713 10.8 29.081 10.9097 29.081 11.0438ZM12.9936 27.1922C12.9936 30.3894 15.5854 32.9812 18.7826 32.9812H27.192C30.3892 32.9812 32.981 30.3894 32.981 27.1922C32.981 23.995 30.3892 21.4031 27.192 21.4031H18.7826C15.5854 21.4031 12.9936 23.995 12.9936 27.1922ZM14.9436 15.1875C13.8666 15.1875 12.9936 16.0605 12.9936 17.1375V17.2593C12.9936 18.4036 13.9212 19.3312 15.0654 19.3312H30.9092C32.0534 19.3312 32.981 18.4036 32.981 17.2593V17.1375C32.981 16.0605 32.108 15.1875 31.031 15.1875H30.5436C29.7358 15.1875 29.081 15.8423 29.081 16.65C29.081 16.7841 28.9713 16.8938 28.8373 16.8938H27.131C26.997 16.8938 26.8873 16.7841 26.8873 16.65C26.8873 15.8423 26.2325 15.1875 25.4247 15.1875H20.5499C19.7421 15.1875 19.0873 15.8423 19.0873 16.65C19.0873 16.7841 18.9776 16.8938 18.8436 16.8938H17.1373C17.0033 16.8938 16.8936 16.7841 16.8936 16.65C16.8936 15.8423 16.2388 15.1875 15.431 15.1875H14.9436ZM20.8374 24.4375C20.8374 24.7965 20.5464 25.0875 20.1874 25.0875C19.8284 25.0875 19.5374 24.7965 19.5374 24.4375C19.5374 24.0787 19.8282 23.7875 20.1874 23.7875C20.5466 23.7875 20.8374 24.0787 20.8374 24.4375ZM20.1874 22.6875C19.2209 22.6875 18.4374 23.471 18.4374 24.4375C18.4374 25.4039 19.2208 26.1875 20.1874 26.1875C21.154 26.1875 21.9374 25.4039 21.9374 24.4375C21.9374 23.471 21.1539 22.6875 20.1874 22.6875ZM27.086 24.736C27.5546 24.2674 27.5546 23.5076 27.086 23.039C26.6173 22.5703 25.8575 22.5703 25.3889 23.039L18.7889 29.639C18.3203 30.1076 18.3203 30.8674 18.7889 31.336C19.2575 31.8047 20.0173 31.8047 20.486 31.336L27.086 24.736ZM26.3374 29.9375C26.3374 30.2963 26.0465 30.5875 25.6874 30.5875C25.3285 30.5875 25.0374 30.2966 25.0374 29.9375C25.0374 29.5782 25.3287 29.2875 25.6874 29.2875C26.0464 29.2875 26.3374 29.5785 26.3374 29.9375ZM25.6874 28.1875C24.7207 28.1875 23.9374 28.9711 23.9374 29.9375C23.9374 30.904 24.7209 31.6875 25.6874 31.6875C26.6535 31.6875 27.4374 30.9043 27.4374 29.9375C27.4374 28.9708 26.6537 28.1875 25.6874 28.1875Z" fill="url(#paint0_radial)"/>
<path fill-rule="evenodd" clip-rule="evenodd" d="M29.081 11.0438C29.081 12.1207 29.9541 12.9938 31.031 12.9938H34.1999C34.7391 12.9938 35.1747 13.4295 35.1747 13.9688V34.2C35.1747 34.7393 34.7391 35.1749 34.1999 35.1749H11.7747C11.2355 35.1749 10.7998 34.7393 10.7998 34.2V13.9688C10.7998 13.4295 11.2355 12.9938 11.7747 12.9938H14.9436C16.0205 12.9938 16.8936 12.1207 16.8936 11.0438C16.8936 10.9097 17.0033 10.8 17.1373 10.8H18.8436C18.9776 10.8 19.0873 10.9097 19.0873 11.0438C19.0873 12.1207 19.9603 12.9938 21.0373 12.9938H24.9373C26.0143 12.9938 26.8873 12.1207 26.8873 11.0438C26.8873 10.9097 26.997 10.8 27.131 10.8H28.8373C28.9713 10.8 29.081 10.9097 29.081 11.0438ZM12.9936 27.1922C12.9936 30.3894 15.5854 32.9812 18.7826 32.9812H27.192C30.3892 32.9812 32.981 30.3894 32.981 27.1922C32.981 23.995 30.3892 21.4031 27.192 21.4031H18.7826C15.5854 21.4031 12.9936 23.995 12.9936 27.1922ZM14.9436 15.1875C13.8666 15.1875 12.9936 16.0605 12.9936 17.1375V17.2593C12.9936 18.4036 13.9212 19.3312 15.0654 19.3312H30.9092C32.0534 19.3312 32.981 18.4036 32.981 17.2593V17.1375C32.981 16.0605 32.108 15.1875 31.031 15.1875H30.5436C29.7358 15.1875 29.081 15.8423 29.081 16.65C29.081 16.7841 28.9713 16.8938 28.8373 16.8938H27.131C26.997 16.8938 26.8873 16.7841 26.8873 16.65C26.8873 15.8423 26.2325 15.1875 25.4247 15.1875H20.5499C19.7421 15.1875 19.0873 15.8423 19.0873 16.65C19.0873 16.7841 18.9776 16.8938 18.8436 16.8938H17.1373C17.0033 16.8938 16.8936 16.7841 16.8936 16.65C16.8936 15.8423 16.2388 15.1875 15.431 15.1875H14.9436ZM20.8374 24.4375C20.8374 24.7965 20.5464 25.0875 20.1874 25.0875C19.8284 25.0875 19.5374 24.7965 19.5374 24.4375C19.5374 24.0787 19.8282 23.7875 20.1874 23.7875C20.5466 23.7875 20.8374 24.0787 20.8374 24.4375ZM20.1874 22.6875C19.2209 22.6875 18.4374 23.471 18.4374 24.4375C18.4374 25.4039 19.2208 26.1875 20.1874 26.1875C21.154 26.1875 21.9374 25.4039 21.9374 24.4375C21.9374 23.471 21.1539 22.6875 20.1874 22.6875ZM27.086 24.736C27.5546 24.2674 27.5546 23.5076 27.086 23.039C26.6173 22.5703 25.8575 22.5703 25.3889 23.039L18.7889 29.639C18.3203 30.1076 18.3203 30.8674 18.7889 31.336C19.2575 31.8047 20.0173 31.8047 20.486 31.336L27.086 24.736ZM26.3374 29.9375C26.3374 30.2963 26.0465 30.5875 25.6874 30.5875C25.3285 30.5875 25.0374 30.2966 25.0374 29.9375C25.0374 29.5782 25.3287 29.2875 25.6874 29.2875C26.0464 29.2875 26.3374 29.5785 26.3374 29.9375ZM25.6874 28.1875C24.7207 28.1875 23.9374 28.9711 23.9374 29.9375C23.9374 30.904 24.7209 31.6875 25.6874 31.6875C26.6535 31.6875 27.4374 30.9043 27.4374 29.9375C27.4374 28.9708 26.6537 28.1875 25.6874 28.1875Z" fill="url(#paint1_angular)" style="mix-blend-mode:difference"/>
<path fill-rule="evenodd" clip-rule="evenodd" d="M29.081 11.0438C29.081 12.1207 29.9541 12.9938 31.031 12.9938H34.1999C34.7391 12.9938 35.1747 13.4295 35.1747 13.9688V34.2C35.1747 34.7393 34.7391 35.1749 34.1999 35.1749H11.7747C11.2355 35.1749 10.7998 34.7393 10.7998 34.2V13.9688C10.7998 13.4295 11.2355 12.9938 11.7747 12.9938H14.9436C16.0205 12.9938 16.8936 12.1207 16.8936 11.0438C16.8936 10.9097 17.0033 10.8 17.1373 10.8H18.8436C18.9776 10.8 19.0873 10.9097 19.0873 11.0438C19.0873 12.1207 19.9603 12.9938 21.0373 12.9938H24.9373C26.0143 12.9938 26.8873 12.1207 26.8873 11.0438C26.8873 10.9097 26.997 10.8 27.131 10.8H28.8373C28.9713 10.8 29.081 10.9097 29.081 11.0438ZM12.9936 27.1922C12.9936 30.3894 15.5854 32.9812 18.7826 32.9812H27.192C30.3892 32.9812 32.981 30.3894 32.981 27.1922C32.981 23.995 30.3892 21.4031 27.192 21.4031H18.7826C15.5854 21.4031 12.9936 23.995 12.9936 27.1922ZM14.9436 15.1875C13.8666 15.1875 12.9936 16.0605 12.9936 17.1375V17.2593C12.9936 18.4036 13.9212 19.3312 15.0654 19.3312H30.9092C32.0534 19.3312 32.981 18.4036 32.981 17.2593V17.1375C32.981 16.0605 32.108 15.1875 31.031 15.1875H30.5436C29.7358 15.1875 29.081 15.8423 29.081 16.65C29.081 16.7841 28.9713 16.8938 28.8373 16.8938H27.131C26.997 16.8938 26.8873 16.7841 26.8873 16.65C26.8873 15.8423 26.2325 15.1875 25.4247 15.1875H20.5499C19.7421 15.1875 19.0873 15.8423 19.0873 16.65C19.0873 16.7841 18.9776 16.8938 18.8436 16.8938H17.1373C17.0033 16.8938 16.8936 16.7841 16.8936 16.65C16.8936 15.8423 16.2388 15.1875 15.431 15.1875H14.9436ZM20.8374 24.4375C20.8374 24.7965 20.5464 25.0875 20.1874 25.0875C19.8284 25.0875 19.5374 24.7965 19.5374 24.4375C19.5374 24.0787 19.8282 23.7875 20.1874 23.7875C20.5466 23.7875 20.8374 24.0787 20.8374 24.4375ZM20.1874 22.6875C19.2209 22.6875 18.4374 23.471 18.4374 24.4375C18.4374 25.4039 19.2208 26.1875 20.1874 26.1875C21.154 26.1875 21.9374 25.4039 21.9374 24.4375C21.9374 23.471 21.1539 22.6875 20.1874 22.6875ZM27.086 24.736C27.5546 24.2674 27.5546 23.5076 27.086 23.039C26.6173 22.5703 25.8575 22.5703 25.3889 23.039L18.7889 29.639C18.3203 30.1076 18.3203 30.8674 18.7889 31.336C19.2575 31.8047 20.0173 31.8047 20.486 31.336L27.086 24.736ZM26.3374 29.9375C26.3374 30.2963 26.0465 30.5875 25.6874 30.5875C25.3285 30.5875 25.0374 30.2966 25.0374 29.9375C25.0374 29.5782 25.3287 29.2875 25.6874 29.2875C26.0464 29.2875 26.3374 29.5785 26.3374 29.9375ZM25.6874 28.1875C24.7207 28.1875 23.9374 28.9711 23.9374 29.9375C23.9374 30.904 24.7209 31.6875 25.6874 31.6875C26.6535 31.6875 27.4374 30.9043 27.4374 29.9375C27.4374 28.9708 26.6537 28.1875 25.6874 28.1875Z" fill="url(#paint2_angular)" style="mix-blend-mode:screen"/>
<path d="M47.5 24C47.5 36.9787 36.9787 47.5 24 47.5C11.0213 47.5 0.5 36.9787 0.5 24C0.5 11.0213 11.0213 0.5 24 0.5C36.9787 0.5 47.5 11.0213 47.5 24Z" stroke="url(#paint3_linear)"/>
<defs>
<radialGradient id="paint0_radial" cx="0" cy="0" r="1" gradientUnits="userSpaceOnUse" gradientTransform="translate(8.22169 -17.5359) rotate(64.8893) scale(60.5679 87.475)">
<stop stop-color="#F7D4CB"/>
<stop offset="0.206431" stop-color="#FFFAE2"/>
<stop offset="0.420706" stop-color="#F58AFE"/>
<stop offset="0.62264" stop-color="#FFD5B7"/>
<stop offset="0.804942" stop-color="#FFFEE2"/>
<stop offset="1" stop-color="#576DFF"/>
</radialGradient>
<radialGradient id="paint1_angular" cx="0" cy="0" r="1" gradientUnits="userSpaceOnUse" gradientTransform="translate(22.9873 22.9875) rotate(90) scale(12.1875)">
<stop stop-color="white"/>
<stop offset="0.143445"/>
<stop offset="0.221575" stop-color="white"/>
<stop offset="0.39346"/>
<stop offset="0.539302" stop-color="white"/>
<stop offset="0.705978"/>
<stop offset="0.794525" stop-color="white"/>
<stop offset="0.919533"/>
</radialGradient>
<radialGradient id="paint2_angular" cx="0" cy="0" r="1" gradientUnits="userSpaceOnUse" gradientTransform="translate(22.9873 22.9875) rotate(90) scale(12.1875)">
<stop stop-color="white"/>
<stop offset="0.143445"/>
<stop offset="0.221575" stop-color="white"/>
<stop offset="0.39346"/>
<stop offset="0.539302" stop-color="white"/>
<stop offset="0.705978"/>
<stop offset="0.794525" stop-color="white"/>
<stop offset="0.919533"/>
</radialGradient>
<linearGradient id="paint3_linear" x1="2.14286" y1="-3" x2="56.0813" y2="29.7484" gradientUnits="userSpaceOnUse">
<stop stop-color="#1F50FE"/>
<stop offset="0.280706" stop-color="#C1C0C8"/>
<stop offset="0.6237" stop-color="white"/>
<stop offset="1" stop-color="#E79BFE"/>
</linearGradient>
</defs>
</svg>
