<svg width="53" height="52" viewBox="0 0 53 52" fill="none" xmlns="http://www.w3.org/2000/svg">
<path d="M26.3455 51.6499C34.7814 47.4683 45.8691 43.7921 46.2727 32.1357V31.1707C48.963 31.0941 51.1152 29.3326 51.1152 27.1729C51.1152 25.105 49.1167 23.3895 46.5801 23.1904L48.1943 16.7877C50.7116 16.5886 52.6909 14.9037 52.6909 12.8359C52.6909 10.6455 50.4618 8.86871 47.7139 8.86871C45.3119 8.86871 43.2942 10.2319 42.833 12.0394C38.2787 11.8862 33.9359 10.2932 30.8228 7.64333C31.6683 6.83151 32.1872 5.78993 32.1872 4.65646C32.1872 2.08315 29.5546 0 26.3455 0C23.1363 0 20.5037 2.09847 20.5037 4.65646C20.5037 5.78993 21.0226 6.83151 21.8681 7.64333C18.7358 10.2932 14.4122 11.8862 9.83871 12.0394C9.37752 10.2319 7.35982 8.86871 4.95779 8.86871C2.22908 8.86871 0 10.6455 0 12.8359C0 14.8884 1.97927 16.5886 4.4966 16.7877L6.11076 23.1904C3.57422 23.3895 1.57573 25.0897 1.57573 27.1729C1.57573 29.3326 3.72795 31.0941 6.41822 31.1707V32.1357C6.41822 38.14 10.223 43.6236 16.6028 46.825L26.3455 51.6499ZM27.7867 50.9147C27.9788 50.8534 28.171 50.7768 28.3439 50.6849L33.3786 48.1729L27.7867 50.9147ZM48.2327 27.1729C48.2327 28.0613 47.368 28.7965 46.2727 28.8731V25.4727C47.368 25.5492 48.2327 26.2845 48.2327 27.1729ZM47.7139 11.1663C48.8669 11.1663 49.8085 11.9169 49.8085 12.8359C49.8085 13.7549 48.8669 14.5055 47.7139 14.5055C46.5225 14.5055 45.6193 13.7396 45.6193 12.8359C45.6193 11.9169 46.5609 11.1663 47.7139 11.1663ZM26.3455 2.29759C27.9788 2.29759 29.3048 3.35449 29.3048 4.65646C29.3048 5.95843 27.9788 7.01532 26.3455 7.01532C24.7121 7.01532 23.3862 5.95843 23.3862 4.65646C23.3862 3.35449 24.7121 2.29759 26.3455 2.29759ZM6.41822 28.8578C5.3229 28.7812 4.45817 28.046 4.45817 27.1576C4.45817 26.2691 5.3229 25.5339 6.41822 25.4573V28.8578ZM4.977 14.5055C3.82403 14.5055 2.88243 13.7549 2.88243 12.8359C2.88243 11.9169 3.82403 11.1663 4.977 11.1663C6.12998 11.1663 7.07157 11.9169 7.07157 12.8359C7.07157 13.7396 6.16841 14.5055 4.977 14.5055ZM9.30066 32.1357V25.4573H15.8726C16.6605 25.4573 17.3138 24.9365 17.3138 24.3085C17.3138 23.6805 16.6605 23.1597 15.8726 23.1597H9.03163L7.32138 16.3282C8.32063 15.8993 9.12771 15.1947 9.56968 14.3523C15.1424 14.2604 20.4845 12.2998 24.2125 9.00657C24.8658 9.22101 25.596 9.32823 26.3455 9.32823C27.0949 9.32823 27.8251 9.20569 28.4785 9.00657C32.2064 12.3151 37.5293 14.2604 43.1212 14.3523C43.5632 15.1947 44.3703 15.8993 45.3695 16.3282L43.6593 23.1597H14.9118C14.1239 23.1597 13.4706 23.6805 13.4706 24.3085C13.4706 24.9365 14.1239 25.4573 14.9118 25.4573H43.3902V32.1357C43.3902 32.9628 43.3134 33.7746 43.1404 34.5711L40.527 36.3939C38.2595 37.9716 34.8198 37.8797 32.706 36.1794C31.7644 35.4289 30.5346 35.0306 29.2087 35.0306H23.463C22.1371 35.0306 20.9073 35.4442 19.9657 36.1794C17.8327 37.8797 14.4122 37.9716 12.1447 36.3939L9.53125 34.5711C9.37752 33.7746 9.30066 32.9628 9.30066 32.1357ZM19.3123 48.1729L24.347 50.6849L19.3123 48.1729ZM26.8259 48.7243C26.5376 48.8621 26.1725 48.8621 25.8843 48.7243C20.0425 45.8446 14.0278 43.5317 11.1454 38.6608C14.5083 40.453 19.0817 40.1313 22.0218 37.8031C22.4061 37.4967 22.925 37.3282 23.4822 37.3282H29.2087C29.7659 37.3282 30.2656 37.4967 30.6691 37.8031C32.3409 39.1357 34.5508 39.8096 36.7607 39.8096C38.4325 39.8096 40.0851 39.4267 41.5455 38.6608C39.1242 43.4398 32.1295 46.0897 26.8259 48.7243ZM26.3455 21.1838C28.7283 21.1838 30.6691 19.6368 30.6691 17.7374C30.6691 15.8381 28.7283 14.291 26.3455 14.291C23.9626 14.291 22.0218 15.8381 22.0218 17.7374C22.0218 19.6368 23.9626 21.1838 26.3455 21.1838ZM26.3455 16.5886C27.1333 16.5886 27.7867 17.1094 27.7867 17.7374C27.7867 18.3654 27.1333 18.8862 26.3455 18.8862C25.5576 18.8862 24.9042 18.3654 24.9042 17.7374C24.9042 17.1094 25.5384 16.5886 26.3455 16.5886Z" fill="url(#paint0_linear)"/>
<defs>
<linearGradient id="paint0_linear" x1="26.3455" y1="0" x2="26.3455" y2="51.6499" gradientUnits="userSpaceOnUse">
<stop stop-color="#2DD2FF"/>
<stop offset="1" stop-color="#2CFEE1"/>
</linearGradient>
</defs>
</svg>
