<svg width="37" height="37" viewBox="0 0 37 37" fill="none" xmlns="http://www.w3.org/2000/svg">
<path opacity="0.25" fill-rule="evenodd" clip-rule="evenodd" d="M18.5 36C28.165 36 36 28.165 36 18.5C36 8.83502 28.165 1 18.5 1C8.83502 1 1 8.83502 1 18.5C1 28.165 8.83502 36 18.5 36Z" stroke="#2DD2FF" stroke-width="1.5"/>
<path d="M11.5709 15.0575C11.5805 14.9618 11.5674 14.8653 11.5326 14.7756C11.4978 14.686 11.4424 14.6058 11.3709 14.5417L9.89585 12.7642V12.4975H14.4775L18.0192 20.2642L21.1325 12.4975H25.5V12.7633L24.2375 13.9725C24.1847 14.0137 24.1438 14.0682 24.1192 14.1305C24.0946 14.1928 24.0871 14.2605 24.0975 14.3267V23.215C24.0869 23.2812 24.0943 23.349 24.119 23.4113C24.1436 23.4736 24.1845 23.5281 24.2375 23.5692L25.47 24.7783V25.0442H19.2734V24.7783L20.5475 23.5392C20.6742 23.4142 20.6742 23.3767 20.6742 23.1858V16.0008L17.125 25.015H16.6459L12.5142 16.0008V22.0417C12.48 22.2958 12.5642 22.5517 12.7434 22.7358L14.4034 24.75V25.0158H9.69669V24.75L11.3567 22.7358C11.444 22.6448 11.5089 22.5347 11.546 22.4141C11.5832 22.2936 11.5917 22.1661 11.5709 22.0417V15.0575Z" fill="#2DD2FF"/>
</svg>
