<svg width="200" height="124" viewBox="0 0 200 124" fill="none" xmlns="http://www.w3.org/2000/svg">
<path d="M0 99.8221H4.74496C7.35469 99.8221 9.19336 100.059 10.2906 100.504C11.3879 100.979 12.2776 101.75 12.9597 102.817C13.6418 103.885 13.968 105.16 13.968 106.643C13.968 108.185 13.5824 109.49 12.8707 110.528C12.159 111.566 11.0024 112.367 9.51957 112.9L15.0949 123.369H10.2017L4.92289 113.404H4.50771V123.369H0V99.8221ZM4.47806 109.015H5.87189C7.29537 109.015 8.27402 108.837 8.80783 108.452C9.34164 108.066 9.60854 107.444 9.60854 106.584C9.60854 106.079 9.48992 105.635 9.22301 105.249C8.95611 104.864 8.60024 104.597 8.1554 104.419C7.71056 104.241 6.88019 104.181 5.69395 104.181H4.47806V109.015Z" fill="url(#paint0_linear)"/>
<path d="M46.204 99.2289C49.5255 99.2289 52.4021 100.445 54.8043 102.847C57.2064 105.249 58.3926 108.185 58.3926 111.655C58.3926 115.095 57.2064 118.001 54.8339 120.374C52.4614 122.746 49.6145 123.932 46.2337 123.932C42.7046 123.932 39.7687 122.716 37.4258 120.255C35.083 117.823 33.9264 114.917 33.9264 111.536C33.9264 109.282 34.4602 107.206 35.5575 105.338C36.6548 103.44 38.1376 101.957 40.0356 100.86C41.9632 99.7628 44.0095 99.2289 46.204 99.2289ZM46.1744 103.588C44.0095 103.588 42.1708 104.359 40.688 105.872C39.2052 107.384 38.4638 109.312 38.4638 111.655C38.4638 114.265 39.4128 116.311 41.2811 117.823C42.7343 119.009 44.395 119.603 46.293 119.603C48.4282 119.603 50.2372 118.832 51.72 117.289C53.2028 115.747 53.9739 113.849 53.9739 111.595C53.9739 109.342 53.2325 107.473 51.72 105.902C50.1483 104.389 48.3096 103.588 46.1744 103.588Z" fill="url(#paint1_linear)"/>
<path d="M77.3429 99.8221H82.1471L86.5362 108.274L90.8956 99.8221H95.6406L88.7604 113.167V123.369H84.2527V113.167L77.3429 99.8221Z" fill="url(#paint2_linear)"/>
<path d="M155.486 99.8221H159.964V119.098H166.489V123.369H155.486V99.8221Z" fill="url(#paint3_linear)"/>
<path d="M187.159 99.8221H200V104.211H191.607V108.482H200V112.782H191.607V118.98H200V123.369H187.159V99.8221Z" fill="url(#paint4_linear)"/>
<path d="M118.446 123.428H113.197L125 99.1696L136.803 123.399L132.088 123.458L125 109.045L118.446 123.428Z" fill="url(#paint5_linear)"/>
<path d="M122.45 123.369L125 117.2L127.58 123.369H122.45Z" fill="url(#paint6_linear)"/>
<path d="M106.999 38.5231L99.7628 48.3096L92.7046 38.5231L99.7628 28.7367L106.999 38.5231Z" fill="url(#paint7_linear)"/>
<path d="M108.778 12.2479L99.7332 24.4662L90.9253 12.2479L99.7332 0L108.778 12.2479Z" fill="url(#paint8_linear)"/>
<path d="M103.885 59.4009L99.7925 64.917L95.8186 59.4009L99.7925 53.9146L103.885 59.4009Z" fill="url(#paint9_linear)"/>
<path d="M91.1032 38.8494L86.6845 50.2076L77.3132 42.6157L81.5244 31.3167L91.1032 38.8494Z" fill="url(#paint10_linear)"/>
<path d="M94.3654 59.7272L91.8743 66.1329L86.5955 61.8624L88.968 55.516L94.3654 59.7272Z" fill="url(#paint11_linear)"/>
<path d="M75.8601 43.3571L74.6146 55.4864L63.5529 50.6524L64.6205 38.6418L75.8601 43.3571Z" fill="url(#paint12_linear)"/>
<path d="M84.6679 62.5148L83.9562 69.3061L77.7284 66.6074L78.3512 59.8458L84.6679 62.5148Z" fill="url(#paint13_linear)"/>
<path d="M62.337 51.7497L64.3239 63.7604L52.4022 62.0403L50.267 50.1779L62.337 51.7497Z" fill="url(#paint14_linear)"/>
<path d="M36.0321 46.0261L34.1638 34.7568L45.3441 36.3879L47.3607 47.5089L36.0321 46.0261Z" fill="url(#paint15_linear)"/>
<path d="M76.4532 68.0901L77.5801 74.8517L70.8482 73.8731L69.662 67.2005L76.4532 68.0901Z" fill="url(#paint16_linear)"/>
<path d="M108.422 38.8494L112.841 50.2076L122.212 42.6157L118.001 31.3167L108.422 38.8494Z" fill="url(#paint17_linear)"/>
<path d="M105.931 59.8161L108.422 66.1922L113.701 61.9514L111.329 55.5753L105.931 59.8161Z" fill="url(#paint18_linear)"/>
<path d="M123.695 43.3571L124.941 55.4864L135.973 50.6524L134.905 38.6418L123.695 43.3571Z" fill="url(#paint19_linear)"/>
<path d="M114.887 62.93L115.599 69.7509L121.797 67.0225L121.204 60.261L114.887 62.93Z" fill="url(#paint20_linear)"/>
<path d="M137.189 51.7497L135.202 63.7604L147.123 62.0403L149.259 50.1779L137.189 51.7497Z" fill="url(#paint21_linear)"/>
<path d="M164.472 45.0474L166.341 33.8078L155.16 35.4093L153.144 46.5302L164.472 45.0474Z" fill="url(#paint22_linear)"/>
<path d="M123.102 68.0901L121.975 74.8517L128.677 73.8731L129.893 67.2005L123.102 68.0901Z" fill="url(#paint23_linear)"/>
<defs>
<linearGradient id="paint0_linear" x1="0.932977" y1="111.577" x2="202.92" y2="111.577" gradientUnits="userSpaceOnUse">
<stop stop-color="#E9C17F"/>
<stop offset="1" stop-color="#826D47"/>
</linearGradient>
<linearGradient id="paint1_linear" x1="0.932962" y1="111.577" x2="202.92" y2="111.577" gradientUnits="userSpaceOnUse">
<stop stop-color="#E9C17F"/>
<stop offset="1" stop-color="#826D47"/>
</linearGradient>
<linearGradient id="paint2_linear" x1="0.933001" y1="111.577" x2="202.92" y2="111.577" gradientUnits="userSpaceOnUse">
<stop stop-color="#E9C17F"/>
<stop offset="1" stop-color="#826D47"/>
</linearGradient>
<linearGradient id="paint3_linear" x1="0.933131" y1="111.577" x2="202.92" y2="111.577" gradientUnits="userSpaceOnUse">
<stop stop-color="#E9C17F"/>
<stop offset="1" stop-color="#826D47"/>
</linearGradient>
<linearGradient id="paint4_linear" x1="0.933042" y1="111.577" x2="202.92" y2="111.577" gradientUnits="userSpaceOnUse">
<stop stop-color="#E9C17F"/>
<stop offset="1" stop-color="#826D47"/>
</linearGradient>
<linearGradient id="paint5_linear" x1="0.933004" y1="111.322" x2="202.92" y2="111.322" gradientUnits="userSpaceOnUse">
<stop stop-color="#E9C17F"/>
<stop offset="1" stop-color="#826D47"/>
</linearGradient>
<linearGradient id="paint6_linear" x1="0.933021" y1="120.276" x2="202.919" y2="120.276" gradientUnits="userSpaceOnUse">
<stop stop-color="#E9C17F"/>
<stop offset="1" stop-color="#826D47"/>
</linearGradient>
<linearGradient id="paint7_linear" x1="76.4485" y1="8.16685" x2="128.841" y2="76.4145" gradientUnits="userSpaceOnUse">
<stop stop-color="#E9C17F"/>
<stop offset="1" stop-color="#826D47"/>
</linearGradient>
<linearGradient id="paint8_linear" x1="89.1296" y1="-1.56812" x2="141.522" y2="66.6795" gradientUnits="userSpaceOnUse">
<stop stop-color="#E9C17F"/>
<stop offset="1" stop-color="#826D47"/>
</linearGradient>
<linearGradient id="paint9_linear" x1="66.3873" y1="15.8906" x2="118.779" y2="84.1382" gradientUnits="userSpaceOnUse">
<stop stop-color="#E9C17F"/>
<stop offset="1" stop-color="#826D47"/>
</linearGradient>
<linearGradient id="paint10_linear" x1="65.5985" y1="16.4962" x2="117.991" y2="84.7438" gradientUnits="userSpaceOnUse">
<stop stop-color="#E9C17F"/>
<stop offset="1" stop-color="#826D47"/>
</linearGradient>
<linearGradient id="paint11_linear" x1="59.8499" y1="20.9092" x2="112.242" y2="89.1568" gradientUnits="userSpaceOnUse">
<stop stop-color="#E9C17F"/>
<stop offset="1" stop-color="#826D47"/>
</linearGradient>
<linearGradient id="paint12_linear" x1="53.444" y1="25.8269" x2="105.836" y2="94.0746" gradientUnits="userSpaceOnUse">
<stop stop-color="#E9C17F"/>
<stop offset="1" stop-color="#826D47"/>
</linearGradient>
<linearGradient id="paint13_linear" x1="52.1979" y1="26.7835" x2="104.59" y2="95.0311" gradientUnits="userSpaceOnUse">
<stop stop-color="#E9C17F"/>
<stop offset="1" stop-color="#826D47"/>
</linearGradient>
<linearGradient id="paint14_linear" x1="40.9128" y1="35.4469" x2="93.3049" y2="103.694" gradientUnits="userSpaceOnUse">
<stop stop-color="#E9C17F"/>
<stop offset="1" stop-color="#826D47"/>
</linearGradient>
<linearGradient id="paint15_linear" x1="37.9968" y1="37.6854" x2="90.3889" y2="105.933" gradientUnits="userSpaceOnUse">
<stop stop-color="#E9C17F"/>
<stop offset="1" stop-color="#826D47"/>
</linearGradient>
<linearGradient id="paint16_linear" x1="44.3498" y1="32.8083" x2="96.7419" y2="101.056" gradientUnits="userSpaceOnUse">
<stop stop-color="#E9C17F"/>
<stop offset="1" stop-color="#826D47"/>
</linearGradient>
<linearGradient id="paint17_linear" x1="85.2299" y1="1.42561" x2="137.622" y2="69.6732" gradientUnits="userSpaceOnUse">
<stop stop-color="#E9C17F"/>
<stop offset="1" stop-color="#826D47"/>
</linearGradient>
<linearGradient id="paint18_linear" x1="72.0049" y1="11.5782" x2="124.397" y2="79.8258" gradientUnits="userSpaceOnUse">
<stop stop-color="#E9C17F"/>
<stop offset="1" stop-color="#826D47"/>
</linearGradient>
<linearGradient id="paint19_linear" x1="91.3088" y1="-3.241" x2="143.701" y2="65.0066" gradientUnits="userSpaceOnUse">
<stop stop-color="#E9C17F"/>
<stop offset="1" stop-color="#826D47"/>
</linearGradient>
<linearGradient id="paint20_linear" x1="75.3871" y1="8.98175" x2="127.779" y2="77.2293" gradientUnits="userSpaceOnUse">
<stop stop-color="#E9C17F"/>
<stop offset="1" stop-color="#826D47"/>
</linearGradient>
<linearGradient id="paint21_linear" x1="94.2738" y1="-5.51716" x2="146.666" y2="62.7305" gradientUnits="userSpaceOnUse">
<stop stop-color="#E9C17F"/>
<stop offset="1" stop-color="#826D47"/>
</linearGradient>
<linearGradient id="paint22_linear" x1="113.4" y1="-20.1997" x2="165.792" y2="48.0479" gradientUnits="userSpaceOnUse">
<stop stop-color="#E9C17F"/>
<stop offset="1" stop-color="#826D47"/>
</linearGradient>
<linearGradient id="paint23_linear" x1="77.2179" y1="7.57622" x2="129.61" y2="75.8239" gradientUnits="userSpaceOnUse">
<stop stop-color="#E9C17F"/>
<stop offset="1" stop-color="#826D47"/>
</linearGradient>
</defs>
</svg>
