<svg width="56" height="56" viewBox="0 0 56 56" fill="none" xmlns="http://www.w3.org/2000/svg">
<g clip-path="url(#clip0)">
<path d="M52.2667 48.8776L38.5345 46.1439C41.3625 42.2836 42.0933 37.0234 40.5468 30.6375V30.5983C42.5838 29.5963 44.0788 27.7513 44.6367 25.5508C44.7442 24.7589 44.7988 23.9607 44.8 23.1615C45.9606 22.7542 46.7169 21.6343 46.6612 20.4056C46.6055 19.1769 45.7509 18.13 44.5583 17.8294L46.48 14.7466C47.9343 15.2083 49.5231 14.7366 50.4899 13.5562C51.4567 12.3758 51.6061 10.7252 50.8669 9.39042C50.1278 8.05561 48.6495 7.30637 47.1359 7.49945C45.6224 7.69254 44.3796 8.78893 43.9992 10.2666H40.1333V8.26736C42.0799 7.76659 43.2784 5.81211 42.8421 3.8501C42.4057 1.88809 40.4918 0.625831 38.5164 0.997303C36.5411 1.36878 35.2165 3.24007 35.5227 5.22656L32.816 6.38949L31.4001 5.25736C32.1043 3.69292 31.65 1.84991 30.2996 0.791858C28.9491 -0.266196 27.0509 -0.266196 25.7004 0.791858C24.35 1.84991 23.8957 3.69292 24.5999 5.25736L23.1868 6.38763L20.4773 5.22656C20.7842 3.23939 19.4593 1.36709 17.4833 0.995289C15.5073 0.623492 13.5925 1.88627 13.1562 3.84907C12.7199 5.81188 13.9192 7.76693 15.8667 8.26736V10.2666H12.0008C11.6204 8.78893 10.3776 7.69254 8.86406 7.49945C7.35052 7.30637 5.87222 8.05561 5.13307 9.39042C4.39392 10.7252 4.54331 12.3758 5.51012 13.5562C6.47693 14.7366 8.06573 15.2083 9.52 14.7466L11.4436 17.8266C10.2485 18.1251 9.39111 19.1728 9.33492 20.4033C9.27874 21.6338 10.0371 22.7553 11.2 23.1615C11.2031 23.9749 11.2611 24.7872 11.3736 25.5928C11.946 27.7885 13.4516 29.6232 15.4933 30.6132C15.4457 31.5783 12.8287 39.7366 17.4907 46.142L3.73333 48.8785C1.56379 49.328 0.00603059 51.2363 0 53.4519V54.1332C0 55.1642 0.835735 55.9999 1.86667 55.9999H54.1333C55.1643 55.9999 56 55.1642 56 54.1332V53.4519C55.9937 51.2362 54.4362 49.3278 52.2667 48.8776ZM42.7915 25.2382C42.4256 26.549 41.6076 27.688 40.4824 28.4535C40.4973 26.9312 40.9388 25.3035 41.1833 23.3332H42.9333C42.9217 23.9704 42.8744 24.6063 42.7915 25.2382ZM47.6 9.33323C48.6309 9.33323 49.4667 10.169 49.4667 11.1999C49.4667 12.2308 48.6309 13.0666 47.6 13.0666C46.5691 13.0666 45.7333 12.2308 45.7333 11.1999C45.7333 10.169 46.5691 9.33323 47.6 9.33323ZM39.2 2.79989C40.2309 2.79989 41.0667 3.63563 41.0667 4.66656C41.0667 5.69749 40.2309 6.53323 39.2 6.53323C38.1691 6.53323 37.3333 5.69749 37.3333 4.66656C37.3333 3.63563 38.1691 2.79989 39.2 2.79989ZM28 1.86656C29.0309 1.86656 29.8667 2.70229 29.8667 3.73323C29.8667 4.76416 29.0309 5.59989 28 5.59989C26.9691 5.59989 26.1333 4.76416 26.1333 3.73323C26.1333 2.70229 26.9691 1.86656 28 1.86656ZM14.9333 4.66656C14.9333 3.63563 15.7691 2.79989 16.8 2.79989C17.8309 2.79989 18.6667 3.63563 18.6667 4.66656C18.6667 5.69749 17.8309 6.53323 16.8 6.53323C15.7691 6.53323 14.9333 5.69749 14.9333 4.66656ZM8.4 13.0666C7.36907 13.0666 6.53333 12.2308 6.53333 11.1999C6.53333 10.169 7.36907 9.33323 8.4 9.33323C9.43093 9.33323 10.2667 10.169 10.2667 11.1999C10.2667 12.2308 9.43093 13.0666 8.4 13.0666ZM11.2 20.5332C11.2 20.0178 11.6179 19.5999 12.1333 19.5999H34.5333C35.0488 19.5999 35.4667 19.182 35.4667 18.6666C35.4667 18.1511 35.0488 17.7332 34.5333 17.7332H13.5847L11.1067 13.761C11.5371 13.3024 11.8446 12.7425 12.0008 12.1332H15.8667C16.8976 12.1332 17.7333 11.2975 17.7333 10.2666V8.26736C18.5306 8.05916 19.2364 7.59239 19.74 6.94016L22.4467 8.10309C23.0798 8.37643 23.8121 8.2773 24.3497 7.84549L25.7712 6.71056C27.086 7.71891 28.914 7.71891 30.2288 6.71056L31.6456 7.83989C32.1833 8.27237 32.9161 8.37188 33.5496 8.09843L36.2563 6.93549C36.7601 7.59014 37.4674 8.05868 38.2667 8.26736V10.2666C38.2667 11.2975 39.1024 12.1332 40.1333 12.1332H43.9992C44.1565 12.7428 44.4653 13.3028 44.8971 13.761L42.4153 17.7332H39.2C38.6845 17.7332 38.2667 18.1511 38.2667 18.6666C38.2667 19.182 38.6845 19.5999 39.2 19.5999H43.8667C44.3821 19.5999 44.8 20.0178 44.8 20.5332C44.8 21.0487 44.3821 21.4666 43.8667 21.4666H12.1333C11.6179 21.4666 11.2 21.0487 11.2 20.5332ZM38.6811 30.785C38.1193 32.7224 36.4968 34.1665 34.5072 34.4996C33.7472 34.6764 32.9478 34.522 32.3083 34.075C29.7341 32.2247 26.2659 32.2247 23.6917 34.075C23.0522 34.522 22.2528 34.6764 21.4928 34.4996C19.5002 34.1552 17.8881 32.6865 17.36 30.7346C17.5719 26.4664 17.1584 26.486 16.7393 23.3332H39.3008C38.8407 26.8118 38.4925 26.2014 38.6811 30.785ZM13.2151 25.2783C13.1286 24.6333 13.0791 23.9839 13.0667 23.3332H14.854C15.1764 25.0351 15.4103 26.7526 15.5549 28.4787C14.4221 27.721 13.5934 26.5875 13.2151 25.2783ZM16.8065 33.752C17.8851 35.0713 19.3868 35.9768 21.0569 36.315C22.3323 36.6135 23.6744 36.3582 24.7511 35.6121C26.6875 34.2019 29.3125 34.2019 31.2489 35.6121C32.3252 36.3591 33.6677 36.6145 34.9431 36.315C36.6313 35.9754 38.1513 35.0651 39.2476 33.7371C40.1427 40.0268 38.7455 47.1538 29.3963 50.1805C28.4883 50.4727 27.5117 50.4727 26.6037 50.1805C17.2975 47.1668 15.9105 40.0399 16.8065 33.752ZM14 54.1332H1.86667V53.4519C1.87008 52.1226 2.80493 50.9778 4.10667 50.7088L18.8673 47.7707C19.8755 48.7625 21.0137 49.6127 22.2507 50.2981C21.8213 51.6646 20.1973 54.1332 14 54.1332ZM21.5404 54.1332C22.6271 53.4098 23.4615 52.3659 23.9279 51.1465C27.2197 52.5988 28.5367 52.7043 32.0721 51.1465C32.5385 52.3659 33.3729 53.4098 34.4596 54.1332H21.5404ZM54.1333 54.1332H42C35.8083 54.1332 34.1815 51.6692 33.7549 50.3066C34.9976 49.6212 36.1417 48.7707 37.156 47.7782L51.8933 50.7079C53.195 50.9776 54.1296 52.1225 54.1333 53.4519V54.1332Z" fill="url(#paint0_linear)"/>
<path d="M22.6007 40.7726C25.0003 40.5178 25.0563 38.9199 28 38.9199C29.1676 38.912 30.3069 39.2795 31.2499 39.968C31.8875 40.4102 32.6253 40.6867 33.3965 40.7726C33.9094 40.8267 34.3691 40.4548 34.4232 39.9419C34.4773 39.429 34.1054 38.9693 33.5925 38.9152C33.1302 38.8641 32.688 38.6979 32.3064 38.4318C29.7305 36.5836 26.263 36.5836 23.6871 38.4318C23.3059 38.698 22.864 38.8642 22.4019 38.9152C21.889 38.9693 21.5171 39.429 21.5712 39.9419C21.6253 40.4548 22.085 40.8267 22.5979 40.7726H22.6007Z" fill="url(#paint1_linear)"/>
</g>
<defs>
<linearGradient id="paint0_linear" x1="28" y1="-0.00168228" x2="28" y2="55.9999" gradientUnits="userSpaceOnUse">
<stop stop-color="#2DD2FF"/>
<stop offset="1" stop-color="#2CFEE1"/>
</linearGradient>
<linearGradient id="paint1_linear" x1="28" y1="-0.00168228" x2="28" y2="55.9999" gradientUnits="userSpaceOnUse">
<stop stop-color="#2DD2FF"/>
<stop offset="1" stop-color="#2CFEE1"/>
</linearGradient>
<clipPath id="clip0">
<rect width="56" height="56" fill="white"/>
</clipPath>
</defs>
</svg>
