<svg width="42" height="52" viewBox="0 0 42 52" fill="none" xmlns="http://www.w3.org/2000/svg">
<path d="M21 51.6499C27.7243 47.4683 36.5624 43.7921 36.884 32.1357V31.1707C39.0284 31.0941 40.744 29.3326 40.744 27.1729C40.744 25.105 39.151 23.3895 37.1291 23.1904L38.4158 16.7877C40.4223 16.5886 42 14.9037 42 12.8359C42 10.6455 40.2232 8.86871 38.0328 8.86871C36.1182 8.86871 34.5098 10.2319 34.1422 12.0394C30.512 11.8862 27.0503 10.2932 24.5689 7.64333C25.2429 6.83151 25.6565 5.78993 25.6565 4.65646C25.6565 2.08315 23.558 0 21 0C18.442 0 16.3435 2.09847 16.3435 4.65646C16.3435 5.78993 16.7571 6.83151 17.4311 7.64333C14.9344 10.2932 11.488 11.8862 7.84245 12.0394C7.47484 10.2319 5.86652 8.86871 3.95186 8.86871C1.77681 8.86871 0 10.6455 0 12.8359C0 14.8884 1.57768 16.5886 3.58424 16.7877L4.8709 23.1904C2.84902 23.3895 1.25602 25.0897 1.25602 27.1729C1.25602 29.3326 2.97155 31.0941 5.11597 31.1707V32.1357C5.11597 38.14 8.1488 43.6236 13.2341 46.825L21 51.6499ZM22.1488 50.9147C22.302 50.8534 22.4551 50.7768 22.593 50.6849L26.6061 48.1729L22.1488 50.9147ZM38.4464 27.1729C38.4464 28.0613 37.7571 28.7965 36.884 28.8731V25.4727C37.7571 25.5492 38.4464 26.2845 38.4464 27.1729ZM38.0328 11.1663C38.9519 11.1663 39.7024 11.9169 39.7024 12.8359C39.7024 13.7549 38.9519 14.5055 38.0328 14.5055C37.0832 14.5055 36.3632 13.7396 36.3632 12.8359C36.3632 11.9169 37.1138 11.1663 38.0328 11.1663ZM21 2.29759C22.302 2.29759 23.3589 3.35449 23.3589 4.65646C23.3589 5.95843 22.302 7.01532 21 7.01532C19.698 7.01532 18.6411 5.95843 18.6411 4.65646C18.6411 3.35449 19.698 2.29759 21 2.29759ZM5.11597 28.8578C4.24289 28.7812 3.55361 28.046 3.55361 27.1576C3.55361 26.2691 4.24289 25.5339 5.11597 25.4573V28.8578ZM3.96718 14.5055C3.04814 14.5055 2.29759 13.7549 2.29759 12.8359C2.29759 11.9169 3.04814 11.1663 3.96718 11.1663C4.88621 11.1663 5.63676 11.9169 5.63676 12.8359C5.63676 13.7396 4.91685 14.5055 3.96718 14.5055ZM7.41357 32.1357V25.4573H12.6521C13.2801 25.4573 13.8009 24.9365 13.8009 24.3085C13.8009 23.6805 13.2801 23.1597 12.6521 23.1597H7.19912L5.83589 16.3282C6.63238 15.8993 7.27571 15.1947 7.62801 14.3523C12.07 14.2604 16.3282 12.2998 19.2998 9.00657C19.8206 9.22101 20.4026 9.32823 21 9.32823C21.5974 9.32823 22.1794 9.20569 22.7002 9.00657C25.6718 12.3151 29.9147 14.2604 34.372 14.3523C34.7243 15.1947 35.3676 15.8993 36.1641 16.3282L34.8009 23.1597H11.8862C11.2582 23.1597 10.7374 23.6805 10.7374 24.3085C10.7374 24.9365 11.2582 25.4573 11.8862 25.4573H34.5864V32.1357C34.5864 32.9628 34.5252 33.7746 34.3873 34.5711L32.3042 36.3939C30.4967 37.9716 27.7549 37.8797 26.07 36.1794C25.3195 35.4289 24.3392 35.0306 23.2823 35.0306H18.7024C17.6455 35.0306 16.6652 35.4442 15.9147 36.1794C14.2144 37.8797 11.488 37.9716 9.68052 36.3939L7.59737 34.5711C7.47484 33.7746 7.41357 32.9628 7.41357 32.1357ZM15.3939 48.1729L19.407 50.6849L15.3939 48.1729ZM21.3829 48.7243C21.1532 48.8621 20.8621 48.8621 20.6324 48.7243C15.9759 45.8446 11.1816 43.5317 8.88403 38.6608C11.5646 40.453 15.2101 40.1313 17.5536 37.8031C17.86 37.4967 18.2735 37.3282 18.7177 37.3282H23.2823C23.7265 37.3282 24.1247 37.4967 24.4464 37.8031C25.779 39.1357 27.5405 39.8096 29.302 39.8096C30.6346 39.8096 31.9519 39.4267 33.116 38.6608C31.186 43.4398 25.6105 46.0897 21.3829 48.7243ZM21 21.1838C22.8993 21.1838 24.4464 19.6368 24.4464 17.7374C24.4464 15.8381 22.8993 14.291 21 14.291C19.1007 14.291 17.5536 15.8381 17.5536 17.7374C17.5536 19.6368 19.1007 21.1838 21 21.1838ZM21 16.5886C21.628 16.5886 22.1488 17.1094 22.1488 17.7374C22.1488 18.3654 21.628 18.8862 21 18.8862C20.372 18.8862 19.8512 18.3654 19.8512 17.7374C19.8512 17.1094 20.3567 16.5886 21 16.5886Z" fill="url(#paint0_linear)"/>
<defs>
<linearGradient id="paint0_linear" x1="21" y1="0" x2="21" y2="51.6499" gradientUnits="userSpaceOnUse">
<stop stop-color="#2DD2FF"/>
<stop offset="1" stop-color="#2CFEE1"/>
</linearGradient>
</defs>
</svg>
