<svg width="42" height="60" viewBox="0 0 42 60" fill="none" xmlns="http://www.w3.org/2000/svg">
<path d="M0.40279 18.0001C0.398672 19.0935 0.992524 20.1019 1.95056 20.629C2.90904 21.156 4.07845 21.1171 4.99942 20.5278L9.76991 25.5541C8.53508 26.6544 7.75731 28.1784 7.59123 29.824C7.57522 31.0804 8.06338 32.291 8.94684 33.184C7.92659 34.1375 7.40548 35.5096 7.5345 36.8999C7.79025 38.1737 8.86083 39.1486 10.7188 39.8038C10.8826 40.9073 11.411 42.9153 13.1162 43.5911C13.4794 43.7347 13.8669 43.8079 14.2581 43.8061C14.9503 43.7841 15.6288 43.6084 16.2446 43.2914C16.3133 44.9668 16.2812 46.6454 16.1481 48.3172C15.9971 50.0658 15.3095 50.2401 14.4388 50.4611C13.8715 50.6052 12.8151 50.8728 12.7282 52.0248C12.6952 52.4165 12.8435 52.8012 13.1299 53.0703C13.7466 53.6486 14.6868 53.5255 16.2497 53.3223C18.0788 52.9705 19.9596 52.9838 21.7837 53.3612C23.0671 53.7314 25.2727 55.2883 27.2181 56.6617C30.1649 58.742 32.021 60.0002 33.3382 60.0002C33.6484 60.0043 33.9536 59.9233 34.2208 59.766C34.8979 59.3057 35.2108 58.468 35.0017 57.676C34.5749 53.978 31.3997 50.9817 29.4022 49.4372V47.0096C34.7556 48.7934 35.8641 47.9447 36.2398 47.6588C36.9837 46.9872 37.4087 46.0323 37.4092 45.0299C37.4764 43.8125 37.9477 42.6518 38.7483 41.7317C40.097 40.1679 41.1082 38.3416 41.7171 36.3683C41.9468 35.6148 41.7139 34.7972 41.1219 34.2779C37.7765 31.2451 37.6672 25.8162 37.8575 23.0744C38.3567 22.8561 38.8137 22.5514 39.2076 22.1744C40.1744 21.1844 40.5866 19.7789 40.308 18.4233C39.6748 13.9388 35.2287 12.8325 32.3742 12.848L30.1969 5.38327C31.2908 4.55288 31.6802 3.08472 31.1412 1.82107C30.6027 0.557882 29.2737 -0.177341 27.9167 0.0372327C26.5602 0.251806 25.5234 1.36173 25.4008 2.72969C25.2787 4.09811 26.1022 5.37412 27.3992 5.82614C27.0794 6.63182 26.5478 7.55645 25.743 7.74174C24.9708 7.78292 24.2319 7.42515 23.7849 6.79424C24.1751 6.27999 24.3874 5.65274 24.3897 5.00719C24.3966 3.40453 23.1416 2.07957 21.5408 1.99996C19.94 1.9199 18.5592 3.11309 18.4068 4.70889C18.254 6.30424 19.3832 7.73808 20.9703 7.96318C20.9634 8.92579 20.5622 9.84356 19.8608 10.5028C19.4047 10.856 18.3592 10.3683 17.1139 9.25154C17.2964 8.86174 17.3916 8.43625 17.3934 8.00573C17.398 6.36097 16.0763 5.01955 14.4315 4.99941C12.7872 4.97928 11.4334 6.28823 11.3977 7.93253C11.362 9.57683 12.6577 10.943 14.3016 10.9947C14.5239 12.4422 14.3656 13.5 13.8308 13.9474C13.0338 14.6209 11.8626 13.8953 11.1068 13.2685C11.2957 12.8737 11.395 12.4413 11.3968 12.0035C11.4005 10.7284 10.5994 9.58918 9.39795 9.16186C8.19698 8.73409 6.85646 9.11062 6.05353 10.1011C5.25059 11.0921 5.16001 12.4816 5.82706 13.5682C6.49457 14.6548 7.77469 15.2024 9.02141 14.9348C9.29775 15.7404 9.19801 16.628 8.74919 17.3523C8.08123 17.8711 7.22019 18.0742 6.39072 17.9086C6.35228 16.2647 4.9953 14.9595 3.35146 14.9846C1.70716 15.0098 0.390895 16.3558 0.40279 18.0001ZM38.3292 18.7019C38.5063 19.4275 38.3114 20.1934 37.8095 20.7461C37.4705 21.0558 37.0656 21.2841 36.625 21.4136C36.6103 21.4182 36.5975 21.425 36.5833 21.4301C35.4432 21.7348 34.2569 21.8299 33.0825 21.7096C33.0074 20.9657 32.8295 20.236 32.5536 19.541C32.3358 19.0336 31.7484 18.7989 31.241 19.0167C30.7336 19.2345 30.4993 19.8224 30.7171 20.3297C30.7267 20.3526 31.6875 22.6699 30.6297 24.1793C29.8401 25.307 27.9826 25.8245 25.254 25.6849C24.8939 25.6602 24.5485 25.8318 24.3499 26.1333C24.1518 26.4348 24.1317 26.82 24.2973 27.1407C24.4629 27.4615 24.7887 27.6682 25.1497 27.6811C25.4786 27.698 25.7975 27.7067 26.1068 27.7067C26.1562 27.7067 26.2001 27.7021 26.2491 27.7016C26.4385 28.2928 26.3515 28.9369 26.0121 29.4562C25.6021 29.9398 24.3289 30.6375 20.3979 29.8712C19.837 29.7646 19.2271 29.6291 18.5789 29.4644C18.044 29.329 17.5 29.6525 17.3642 30.1873C17.2283 30.7226 17.5517 31.2661 18.087 31.402C18.4219 31.4871 18.7468 31.5644 19.0606 31.6344C18.8351 33.2353 18.9224 35.0086 20.1047 35.9337C20.5956 36.312 21.2018 36.5097 21.8212 36.4932C22.012 36.4905 22.2024 36.4749 22.3909 36.4465V37.174C21.0142 37.6608 20.1884 39.0685 20.4354 40.5079C20.682 41.9472 21.9301 42.999 23.3905 42.999C24.8509 42.999 26.0985 41.9472 26.3456 40.5079C26.5926 39.0685 25.7668 37.6608 24.3897 37.174V35.8175C24.5242 35.7575 24.6532 35.7058 24.7923 35.6367C25.2796 35.3883 25.4763 34.7945 25.2343 34.304C24.9918 33.814 24.4007 33.609 23.907 33.8451C22.0729 34.7515 21.4758 34.4687 21.3372 34.3603C21.0339 34.1224 20.8577 33.314 21.0261 32.0078C21.8176 32.1349 22.6178 32.2027 23.4193 32.21C25.35 32.21 26.7098 31.725 27.537 30.7487C28.2479 29.8423 28.5105 28.6629 28.2511 27.5411C29.8419 27.3855 31.2982 26.5798 32.2745 25.3143C32.6085 24.8289 32.8455 24.284 32.9731 23.7089C33.9243 23.7899 34.8809 23.7661 35.8271 23.638C35.6958 26.874 36.092 32.4136 39.8088 35.7749C39.285 37.4782 38.4148 39.0553 37.2527 40.4063C36.189 41.621 35.5494 43.1482 35.4295 44.7582C35.3206 45.5552 35.2534 45.8969 35.0475 46.0561C34.6792 46.2428 32.8208 46.0959 29.3981 44.8959C28.9397 44.7353 28.4314 44.8071 28.0352 45.088C27.639 45.3694 27.4034 45.8251 27.4034 46.311V49.6847C27.4006 50.1527 27.6198 50.5951 27.994 50.8765C29.3807 51.9233 32.6469 54.7036 33.0166 57.9053L33.0202 57.9387C31.3801 57.122 29.8231 56.1475 28.3719 55.0293C26.1951 53.4925 23.945 51.9041 22.3401 51.4411C20.6372 51.0238 18.8694 50.9415 17.1354 51.1986C17.754 50.4268 18.1067 49.4756 18.1396 48.4869C18.3075 46.3444 18.3226 44.1927 18.1849 42.0479C18.7637 41.5876 19.3173 41.0962 19.843 40.576C20.2305 40.1881 20.2337 39.5604 19.8489 39.1687C19.4646 38.7776 18.8369 38.7689 18.4421 39.15C15.5629 41.9788 14.275 41.8973 13.8546 41.7336C13.0182 41.4046 12.6792 39.7557 12.6454 39.0114C12.6284 38.5804 12.337 38.2093 11.9225 38.0904C10.4804 37.6763 9.61801 37.1145 9.4954 36.5078C9.322 35.6573 10.4507 34.422 11.023 33.9586C11.2582 33.7701 11.3954 33.4855 11.3968 33.184C11.3987 32.883 11.2641 32.597 11.0308 32.4062C10.1757 31.8444 9.64043 30.9084 9.5901 29.8867C9.62899 28.3559 11.1992 26.8699 11.8118 26.4183C22.4659 18.3753 30.7876 15.2431 31.8426 14.8638C32.7004 14.808 37.7596 14.6671 38.3292 18.7019ZM23.3901 38.9885C23.9423 38.9885 24.3897 39.4359 24.3897 39.9881C24.3897 40.5399 23.9423 40.9874 23.3901 40.9874C22.8383 40.9874 22.3909 40.5399 22.3909 39.9881C22.3913 39.4364 22.8388 38.9894 23.3901 38.9885ZM27.3883 3.00832C27.3883 2.45656 27.8357 2.00911 28.3875 2.00911C28.9397 2.00911 29.3871 2.45656 29.3871 3.00832C29.3871 3.56054 28.9397 4.00798 28.3875 4.00798C27.8357 4.00707 27.3887 3.56008 27.3883 3.00832ZM20.392 5.00719C20.392 4.45543 20.8394 4.00798 21.3912 4.00798C21.9434 4.00798 22.3909 4.45543 22.3909 5.00719C22.3909 5.55941 21.9434 6.00686 21.3912 6.00686C20.8394 6.00594 20.3924 5.55895 20.392 5.00719ZM14.3954 9.00494C13.8431 9.00494 13.3957 8.55749 13.3957 8.00573C13.3957 7.45351 13.8431 7.00606 14.3954 7.00606C14.9471 7.00606 15.3946 7.45351 15.3946 8.00573C15.3927 8.25462 15.2967 8.4939 15.1265 8.67507C15.1214 8.67965 15.115 8.68102 15.11 8.68605C15.099 8.69657 15.0958 8.71167 15.0853 8.72311C14.9009 8.90291 14.6529 9.00402 14.3954 9.00494ZM9.11017 12.7016C9.10605 12.7058 9.10056 12.7067 9.09599 12.7117L9.09004 12.7204C8.71991 13.0388 8.16221 12.999 7.84057 12.6316C7.5194 12.2638 7.55463 11.7061 7.91972 11.3817C8.28482 11.0578 8.84344 11.0884 9.17011 11.4513C9.49723 11.8141 9.47023 12.3722 9.11017 12.7021V12.7016ZM10.2393 18.6845C10.9283 17.8459 11.2477 16.7644 11.1246 15.686C11.7322 16.0227 12.412 16.208 13.1061 16.2249C13.8445 16.2268 14.5587 15.9619 15.1169 15.4783C16.149 14.614 16.5521 13.1775 16.3425 11.2152C17.2109 12.0282 18.3286 12.5246 19.514 12.6243C20.08 12.628 20.6308 12.4399 21.076 12.0909C22.1012 11.244 22.7546 10.0298 22.8969 8.70801C23.5914 9.36226 24.5004 9.74153 25.4539 9.77447C25.7028 9.77447 25.9508 9.74565 26.1928 9.68938C27.3064 9.38376 28.2383 8.62108 28.759 7.59031L30.4142 13.2639C23.6023 16.1 17.1871 19.8068 11.3282 24.2918L7.1781 19.9194C8.32416 19.9422 9.42997 19.4962 10.2393 18.6845ZM3.40133 17.0009C3.95309 17.0009 4.40054 17.4483 4.40054 18.0001C4.40054 18.5523 3.95309 18.9998 3.40133 18.9998C2.84911 18.9998 2.40166 18.5523 2.40166 18.0001C2.40258 17.4483 2.84957 17.0013 3.40133 17.0009Z" fill="url(#paint0_linear)"/>
<defs>
<linearGradient id="paint0_linear" x1="21.1035" y1="0.000244141" x2="21.1035" y2="60.0004" gradientUnits="userSpaceOnUse">
<stop stop-color="#2DD2FF"/>
<stop offset="1" stop-color="#2CFEE1"/>
</linearGradient>
</defs>
</svg>
