<svg width="70" height="53" viewBox="0 0 70 53" fill="none" xmlns="http://www.w3.org/2000/svg">
<path d="M29.2313 3.45774L28.3217 3.87321L29.2313 3.45773C28.4897 1.834 26.5886 0.935912 24.9161 1.69981L3.02317 11.6995C1.35071 12.4634 0.784698 14.4883 1.52632 16.112L1.52632 16.112L16.0916 48.001L17.0012 47.5855L16.0916 48.001C16.8332 49.6247 18.7343 50.5228 20.4068 49.7589L42.2997 39.7592C43.9722 38.9953 44.5382 36.9704 43.7966 35.3466L29.2313 3.45774Z" fill="#000E36" stroke="url(#paint0_linear)" stroke-width="2"/>
<mask id="path-2-outside-1" maskUnits="userSpaceOnUse" x="8.86304" y="-0.79541" width="41" height="50" fill="black">
<rect fill="white" x="8.86304" y="-0.79541" width="41" height="50"/>
<path fill-rule="evenodd" clip-rule="evenodd" d="M12.4768 8.23887L35.793 2.26758C36.9624 1.96809 38.1862 2.76571 38.5125 4.04011L47.2102 38.0018C47.5366 39.2762 46.8469 40.5639 45.6775 40.8634L22.3613 46.8347C21.1919 47.1342 19.9681 46.3365 19.6417 45.0622L10.944 11.1003C10.6177 9.82595 11.3074 8.53827 12.4768 8.23878V8.23884V8.23887Z"/>
</mask>
<path fill-rule="evenodd" clip-rule="evenodd" d="M12.4768 8.23887L35.793 2.26758C36.9624 1.96809 38.1862 2.76571 38.5125 4.04011L47.2102 38.0018C47.5366 39.2762 46.8469 40.5639 45.6775 40.8634L22.3613 46.8347C21.1919 47.1342 19.9681 46.3365 19.6417 45.0622L10.944 11.1003C10.6177 9.82595 11.3074 8.53827 12.4768 8.23878V8.23884V8.23887Z" fill="#000E36"/>
<path d="M12.4768 8.23887H10.4768V10.8156L12.973 10.1763L12.4768 8.23887ZM35.793 2.26758L36.2892 4.20506L36.2892 4.20505L35.793 2.26758ZM38.5125 4.04011L36.5751 4.53628L36.5751 4.5363L38.5125 4.04011ZM47.2102 38.0018L49.1477 37.5057V37.5056L47.2102 38.0018ZM45.6775 40.8634L45.1813 38.9259L45.1813 38.9259L45.6775 40.8634ZM22.3613 46.8347L22.8574 48.7722L22.8575 48.7722L22.3613 46.8347ZM19.6417 45.0622L21.5792 44.566L21.5792 44.566L19.6417 45.0622ZM10.944 11.1003L9.00656 11.5965L9.00656 11.5965L10.944 11.1003ZM12.4768 8.23878H14.4768V5.662L11.9806 6.30131L12.4768 8.23878ZM12.973 10.1763L36.2892 4.20506L35.2968 0.330112L11.9806 6.3014L12.973 10.1763ZM36.2892 4.20505C36.2898 4.2049 36.2918 4.2038 36.3017 4.20563C36.3138 4.20789 36.3407 4.21561 36.3768 4.23917C36.4514 4.28776 36.5364 4.3855 36.5751 4.53628L40.45 3.54393C39.8906 1.35965 37.6897 -0.28272 35.2968 0.330115L36.2892 4.20505ZM36.5751 4.5363L45.2728 38.498L49.1477 37.5056L40.45 3.54391L36.5751 4.5363ZM45.2728 38.498C45.3114 38.6488 45.2838 38.7754 45.2417 38.8539C45.2214 38.8919 45.2015 38.9116 45.1919 38.9194C45.1841 38.9258 45.1819 38.9257 45.1813 38.9259L46.1736 42.8009C48.5666 42.1881 49.7071 39.6898 49.1477 37.5057L45.2728 38.498ZM45.1813 38.9259L21.8651 44.8972L22.8575 48.7722L46.1737 42.8008L45.1813 38.9259ZM21.8651 44.8972C21.8645 44.8974 21.8625 44.8985 21.8526 44.8966C21.8404 44.8944 21.8136 44.8866 21.7774 44.8631C21.7028 44.8145 21.6178 44.7167 21.5792 44.566L17.7042 45.5584C18.2636 47.7426 20.4646 49.3849 22.8574 48.7722L21.8651 44.8972ZM21.5792 44.566L12.8815 10.6041L9.00656 11.5965L17.7043 45.5584L21.5792 44.566ZM12.8815 10.6041C12.8429 10.4534 12.8705 10.3268 12.9125 10.2483C12.9329 10.2103 12.9527 10.1906 12.9623 10.1827C12.9702 10.1764 12.9724 10.1764 12.973 10.1762L11.9806 6.30131C9.58778 6.91414 8.44717 9.41225 9.00656 11.5965L12.8815 10.6041ZM10.4768 8.23878V8.23884H14.4768V8.23878H10.4768ZM10.4768 8.23884V8.23887H14.4768V8.23884H10.4768Z" fill="url(#paint1_linear)" mask="url(#path-2-outside-1)"/>
<path d="M46.4453 2.79894L46.5027 3.79698L46.4453 2.79894L22.4451 4.17997H22.4451L22.4164 4.18162L22.4164 4.18162C20.5808 4.28728 19.3192 5.9692 19.4217 7.75137L19.4217 7.75138L21.4358 42.7513C21.5383 44.5335 22.9845 46.0596 24.8201 45.954L48.8489 44.5713C50.6845 44.4657 51.9462 42.7837 51.8436 41.0016L49.8296 6.00162C49.7271 4.21944 48.2808 2.69333 46.4453 2.79894Z" fill="#000E36" stroke="url(#paint2_linear)" stroke-width="2"/>
<path d="M32.9786 3.20624L32.4822 3.09694L32.4009 3.17983C30.8159 3.25666 29.5409 4.57169 29.3404 6.16769L29.3404 6.16769L24.9705 40.9521L25.9627 41.0767L24.9705 40.9521C24.748 42.7233 25.8934 44.4865 27.7176 44.7156L51.5985 47.7157C53.4228 47.9449 54.9686 46.5198 55.1912 44.7486L59.561 9.96419C59.7835 8.19299 58.6382 6.42978 56.8139 6.20061L32.9786 3.20624Z" fill="#000E36" stroke="url(#paint3_linear)" stroke-width="2"/>
<path d="M42.7063 3.70162C41.4532 3.83368 40.3386 4.73853 39.8944 5.9863L28.1369 39.0138L29.0778 39.3487L28.1369 39.0138C27.5382 40.6955 28.277 42.664 30.0091 43.2806L52.6838 51.3526C54.4159 51.9692 56.2324 50.9104 56.8311 49.2287L68.5886 16.2012C69.1872 14.5195 68.4485 12.551 66.7163 11.9344L45.4661 4.36942L44.0417 3.86236C44.0367 3.8606 44.0318 3.85885 44.0269 3.85712L42.7063 3.38701V3.70162Z" fill="#000E36" stroke="url(#paint4_linear)" stroke-width="2"/>
<path d="M6.579 15.8777C6.39583 15.4441 6.27883 15.0393 6.22807 14.6635C6.17679 14.284 6.19265 13.9329 6.2755 13.6101C6.35945 13.2833 6.49637 13.0264 6.68636 12.8392C6.87769 12.6507 7.12107 12.5345 7.4164 12.4909C7.47901 12.4808 7.54195 12.475 7.60533 12.4731C7.66977 12.4712 7.7329 12.4733 7.79446 12.4795C8.11586 12.5118 8.43674 12.6505 8.75706 12.8956L8.76234 12.8992C8.76362 12.9003 8.76497 12.9014 8.76625 12.9025C8.82633 12.9489 8.88536 12.9986 8.9433 13.0515C9.00194 13.1051 9.05959 13.1623 9.11632 13.2231C9.40383 13.5312 9.6588 13.9256 9.8812 14.4059C10.0452 14.7601 10.1651 15.0959 10.2409 15.4131C10.3175 15.7332 10.3497 16.0355 10.3378 16.3196C10.3257 16.6057 10.2727 16.859 10.1788 17.0796C10.0843 17.3019 9.94856 17.4903 9.77132 17.644C9.76962 17.6455 9.76728 17.6474 9.76555 17.6487C9.69788 17.7064 9.62902 17.7569 9.559 17.8004C9.48636 17.8455 9.41273 17.8829 9.33804 17.9127C8.95105 18.0671 8.53395 18.0223 8.08662 17.7786C7.78149 17.6124 7.50284 17.3699 7.25091 17.0512C7.00119 16.7355 6.77712 16.344 6.579 15.8777ZM3.66853 15.6225L3.44366 15.1302C3.42559 15.0906 3.44302 15.0439 3.48254 15.0259L3.73213 14.9119C3.99198 14.7932 4.13283 14.5971 4.15481 14.3236C4.15836 14.2847 4.15891 14.2443 4.15647 14.2043C4.15407 14.1629 4.14853 14.1202 4.14007 14.076C4.13303 14.0397 4.15228 14.0045 4.18453 13.9898L4.56399 13.8161C4.60352 13.798 4.65018 13.8154 4.66828 13.855C4.66924 13.8572 4.67017 13.8594 4.6709 13.8616L6.5192 17.9082C6.58912 18.0613 6.64181 18.1549 6.67678 18.1892C6.68594 18.1983 6.69673 18.2039 6.7089 18.2059C6.72585 18.2087 6.74695 18.2063 6.77206 18.1988C6.77978 18.1964 6.78757 18.1953 6.79525 18.1954C6.79413 18.1957 6.7949 18.1952 6.79525 18.1954C6.79964 18.1942 6.80518 18.1912 6.81219 18.188L7.19698 18.0123C7.2365 17.9942 7.28323 18.0116 7.30129 18.0511L7.5392 18.5721C7.55726 18.6116 7.53984 18.6583 7.50031 18.6764L5.56605 19.5598C5.52647 19.5779 5.47977 19.5605 5.46171 19.521L5.22377 19.0001C5.20571 18.9605 5.22313 18.9138 5.26272 18.8957L5.65781 18.7153C5.66601 18.7115 5.67226 18.7083 5.67652 18.7056C5.67998 18.7034 5.68296 18.7011 5.68545 18.6988C5.69023 18.6943 5.69548 18.6905 5.70092 18.6874C5.74986 18.66 5.78647 18.634 5.81094 18.6098C5.82814 18.5928 5.83746 18.579 5.83906 18.5685C5.8414 18.5526 5.83531 18.5214 5.82087 18.4751C5.80424 18.4219 5.77622 18.352 5.73673 18.2656L5.60308 17.973L4.40882 15.3709L3.77284 15.6614C3.73332 15.6795 3.68659 15.6621 3.66853 15.6225ZM7.41301 15.4819L7.41474 15.4856C7.45096 15.565 7.48302 15.6346 7.5113 15.6942C7.52007 15.7127 7.52885 15.7311 7.53756 15.7494C7.55383 15.7829 7.56889 15.8132 7.58272 15.8405C7.62484 15.9229 7.66894 16.0054 7.714 16.0862C7.75734 16.1641 7.80067 16.2384 7.84397 16.3092C8.06442 16.6693 8.28183 16.9343 8.49609 17.104C8.53283 17.1328 8.57126 17.1601 8.60832 17.1835C8.64493 17.2065 8.68073 17.2263 8.71568 17.2429C8.89141 17.3257 9.05985 17.3331 9.22108 17.2649C9.33295 17.2176 9.41927 17.1446 9.47993 17.0458C9.54251 16.9441 9.57905 16.8137 9.58972 16.6545C9.58981 16.6531 9.59001 16.6518 9.5901 16.6504C9.59994 16.4824 9.57242 16.2735 9.50776 16.0237C9.44117 15.7669 9.33612 15.4698 9.19251 15.1328C8.98356 14.6392 8.77345 14.2357 8.56245 13.9232C8.35504 13.6161 8.14801 13.3984 7.94115 13.2702C7.82136 13.1946 7.70757 13.15 7.60069 13.1368C7.49685 13.1239 7.39789 13.1404 7.30385 13.1858C7.20972 13.2314 7.13587 13.2982 7.08232 13.3864C7.02713 13.4775 6.99258 13.5924 6.97867 13.7313C6.97848 13.7335 6.97816 13.7357 6.97784 13.7378C6.95481 13.9428 6.97858 14.1888 7.04926 14.4759C7.12174 14.7701 7.2431 15.1055 7.41301 15.4819Z" fill="url(#paint5_linear)"/>
<path fill-rule="evenodd" clip-rule="evenodd" d="M10.569 22.8602C10.8595 23.2126 11.208 23.6068 11.636 23.8205C11.1197 23.8915 10.6398 24.1107 10.2482 24.4544C10.3669 23.991 10.2972 23.4695 10.221 23.0191C9.95787 23.5171 9.39264 23.9851 8.51837 23.7053C7.93159 23.5174 7.57912 22.8976 7.64055 22.2446C7.74196 21.1662 8.44955 20.3269 8.53605 18.8697C9.69405 19.7585 10.7917 19.7732 11.6732 20.4027C12.2069 20.7838 12.4447 21.4561 12.2024 22.0226C11.8415 22.8666 11.1176 22.9874 10.569 22.8602Z" fill="url(#paint6_linear)"/>
<path d="M15.141 14.0431C15.1817 14.0637 15.2243 14.0786 15.2687 14.0877C15.3508 14.1046 15.4396 14.1022 15.5352 14.0804C15.6412 14.0532 15.7267 14.0107 15.7918 13.9534C15.8555 13.8974 15.9007 13.826 15.9274 13.7393C15.9352 13.7138 15.9416 13.6867 15.9465 13.6581C15.9515 13.6288 15.955 13.5975 15.9571 13.5642C15.9682 13.3874 15.9378 13.1587 15.8659 12.8781L15.1088 9.92196C15.0674 9.76025 15.029 9.66397 14.9934 9.63316C14.9646 9.60815 14.8994 9.60421 14.7978 9.62131L14.3129 9.74552C14.2708 9.75628 14.2279 9.73088 14.2171 9.68876L14.0731 9.12642C14.0623 9.0843 14.0877 9.04141 14.1298 9.03062L16.2673 8.4832C16.3095 8.4724 16.3523 8.4978 16.3631 8.53992L16.5072 9.1023C16.518 9.14438 16.4926 9.1873 16.4504 9.19806C16.4481 9.19867 16.4458 9.19915 16.4435 9.1995L16.0295 9.30555C16.003 9.3123 15.9841 9.3213 15.9725 9.33187C15.9649 9.33882 15.9603 9.34786 15.9587 9.35887C15.958 9.3639 15.9576 9.37002 15.9575 9.37684C15.9574 9.38446 15.9578 9.39414 15.9587 9.40589C15.9634 9.46847 15.982 9.56321 16.0145 9.69004L16.7421 12.5323C16.8724 13.0411 16.8983 13.4574 16.8194 13.7815C16.7789 13.9475 16.7092 14.0978 16.6102 14.2323C16.5116 14.3663 16.3842 14.4845 16.2282 14.587C16.2258 14.5886 16.2233 14.5901 16.2208 14.5913C16.145 14.6384 16.0692 14.6765 15.9936 14.7056C15.916 14.7354 15.8377 14.7563 15.7586 14.768C15.4593 14.8218 15.1956 14.7909 14.9674 14.6754C14.7402 14.5604 14.5627 14.3841 14.4348 14.1467C14.4343 14.1456 14.4337 14.1445 14.4332 14.1433C14.3625 14.0101 14.3128 13.88 14.2839 13.7531C14.2542 13.6227 14.2464 13.4962 14.2604 13.3738C14.2642 13.341 14.2697 13.3077 14.2769 13.2744C14.2839 13.2419 14.2922 13.2114 14.3019 13.1828C14.3544 13.0277 14.4473 12.9151 14.5804 12.8449C14.5813 12.8445 14.5821 12.8441 14.583 12.8436C14.6057 12.8327 14.6296 12.8233 14.6542 12.8157C14.6786 12.8081 14.7026 12.8027 14.7261 12.7994C14.8501 12.7824 14.9699 12.8199 15.0852 12.9118C15.1618 12.9728 15.2227 13.0468 15.2677 13.1337C15.3117 13.2185 15.3401 13.3153 15.3531 13.4239C15.3583 13.4629 15.3613 13.5009 15.3619 13.5369C15.3626 13.5726 15.3608 13.6082 15.3566 13.6436C15.3371 13.8083 15.2653 13.9415 15.141 14.0431Z" fill="url(#paint7_linear)"/>
<path fill-rule="evenodd" clip-rule="evenodd" d="M17.6824 19.588C17.906 19.9863 18.1793 20.4359 18.5628 20.7219C18.0421 20.7004 17.531 20.8313 17.0848 21.1004C17.2836 20.6653 17.3071 20.1396 17.3118 19.6829C16.9648 20.1265 16.3257 20.4872 15.5147 20.0572C14.9703 19.7686 14.733 19.0962 14.9089 18.4643C15.1994 17.4208 16.0442 16.7199 16.387 15.301C17.3696 16.3805 18.4474 16.589 19.2037 17.3644C19.6617 17.834 19.7768 18.5376 19.4382 19.0524C18.9337 19.8193 18.1999 19.8102 17.6824 19.588Z" fill="url(#paint8_linear)"/>
<path d="M24.2292 10.9532C24.2304 10.8896 24.2427 10.8286 24.2659 10.7703L24.2684 10.7642C24.2731 10.7528 24.2781 10.742 24.2833 10.7317L24.2845 10.7293C24.2901 10.7186 24.296 10.7084 24.3021 10.699C24.3055 10.6938 24.3092 10.6883 24.3127 10.6836L24.3141 10.6818C24.3167 10.6783 24.3208 10.6732 24.3235 10.6699L24.3255 10.6676L24.3291 10.6635L24.3343 10.6579L24.3363 10.6558L24.3388 10.6533L24.3407 10.6515L24.3452 10.6472L24.3481 10.6445L24.3505 10.6425L24.3526 10.6407L24.3547 10.639C24.3619 10.6331 24.3698 10.6275 24.3777 10.6227C24.4034 10.6069 24.4327 10.5967 24.4655 10.5919C24.4687 10.5915 24.4717 10.5909 24.4747 10.5901C24.4812 10.589 24.4876 10.5882 24.4938 10.5877C24.5014 10.5871 24.5091 10.587 24.5168 10.5873C24.554 10.5887 24.589 10.602 24.6218 10.627C24.6289 10.6324 24.6366 10.6388 24.6446 10.6462C24.6533 10.6541 24.6625 10.6631 24.6721 10.6731C24.6851 10.6865 24.6988 10.7016 24.7133 10.7186L24.7154 10.7211L24.7176 10.7236L24.7195 10.7259L24.722 10.7288L24.7242 10.7315L24.7264 10.7341L24.728 10.7361L24.7331 10.7422L24.7354 10.745L24.7376 10.7478L24.7396 10.7502L24.7422 10.7534L24.7485 10.7613L24.7515 10.765L24.7539 10.768L24.7634 10.7801L24.7729 10.7924L24.7756 10.7958L24.7781 10.7991L24.7795 10.801L24.7847 10.8078L24.7881 10.8122L24.7906 10.8156L24.7924 10.8181L24.7957 10.8224L24.8057 10.8358L24.8086 10.8398L24.8139 10.847L24.8158 10.8496L24.8227 10.859L24.8246 10.8616C24.8315 10.8712 24.8389 10.8814 24.846 10.8915L24.8575 10.9078L24.8654 10.919L24.8691 10.9243L24.8708 10.9266C24.8719 10.9281 24.8731 10.9296 24.8743 10.931C24.8829 10.9432 24.893 10.9578 24.9046 10.975C24.9159 10.9918 24.9271 11.0092 24.9383 11.0269L24.9408 11.031L24.9426 11.0339L24.9439 11.0359L24.9455 11.0385L24.9468 11.0406L24.948 11.0426L24.9493 11.0446C24.9928 11.1156 25.0339 11.1921 25.0725 11.2742C25.0218 11.3112 24.97 11.3413 24.9169 11.3645L24.909 11.3679C24.9043 11.3698 24.8995 11.3718 24.8948 11.3737L24.8867 11.3769L24.8792 11.3797L24.8724 11.3821L24.8643 11.385L24.8566 11.3876L24.85 11.3898L24.8418 11.3923L24.8377 11.3935L24.835 11.3944L24.8322 11.3952L24.8295 11.396L24.8268 11.3967L24.8227 11.3979L24.8199 11.3986L24.8172 11.3994L24.8089 11.4015L24.8034 11.4029L24.801 11.4035C24.789 11.4064 24.7753 11.4093 24.7633 11.4114C24.7591 11.4122 24.7535 11.4131 24.7493 11.4138C24.4042 11.469 24.2218 11.3162 24.2292 10.9532ZM24.3263 9.8218L24.3212 9.82327L24.3186 9.82401L24.3161 9.82475L24.309 9.82689L24.3065 9.82769L24.297 9.83074L24.2919 9.8324L24.2895 9.83323L24.2871 9.83407L24.2847 9.83487C24.2815 9.83599 24.2784 9.83711 24.2752 9.83826L24.2705 9.83999L24.2671 9.84124L24.2646 9.8422L24.2623 9.8431L24.26 9.84403L24.2535 9.84659C24.1489 9.88893 24.0566 9.95596 23.9788 10.0469C23.9546 10.0751 23.932 10.1055 23.9115 10.137C23.8908 10.1688 23.8721 10.202 23.8552 10.2366C23.7863 10.3782 23.7455 10.5487 23.7326 10.7481C23.7211 10.7317 23.7099 10.7152 23.6989 10.6986C23.6459 10.6186 23.5979 10.5348 23.555 10.4474C23.3308 9.99103 23.2313 9.41802 23.2562 8.7284C23.2588 8.66793 23.2629 8.60647 23.2681 8.54488C23.2733 8.48422 23.2796 8.42529 23.2871 8.36815C23.3255 8.07202 23.3952 7.80385 23.496 7.56361C23.6057 7.31171 23.7388 7.12086 23.895 6.99089C24.0472 6.86428 24.2233 6.79523 24.4232 6.7837C24.623 6.7722 24.8059 6.82063 24.9716 6.92894C25.1417 7.04011 25.2957 7.21454 25.4335 7.45218C25.4343 7.45356 25.4352 7.45487 25.436 7.45619C25.5272 7.61216 25.6036 7.78396 25.6651 7.97152C25.7272 8.16083 25.774 8.36642 25.8055 8.58834C25.8058 8.59055 25.8062 8.59273 25.8067 8.59488C25.8716 9.01822 25.8804 9.39993 25.8329 9.73994C25.7917 10.0352 25.7079 10.2985 25.5815 10.5299L25.499 10.4247C25.4976 10.4229 25.4962 10.4213 25.4947 10.4197C25.4541 10.3683 25.4149 10.321 25.3771 10.2777C25.3358 10.2303 25.2965 10.1877 25.2592 10.1499C25.1266 10.0155 25.0008 9.91962 24.8818 9.86216L24.878 9.86033L24.8726 9.8578L24.8696 9.85639L24.8643 9.85399L24.8574 9.85088L24.8543 9.84954L24.8513 9.84823L24.8483 9.84694L24.8453 9.84566L24.8392 9.84313L24.8332 9.8407C24.8182 9.83468 24.8031 9.82923 24.7883 9.82449L24.7829 9.82279L24.7773 9.82103L24.7706 9.81911L24.7677 9.81825L24.7634 9.81706L24.7608 9.81633C24.7582 9.81562 24.7556 9.81495 24.753 9.81431L24.7501 9.81354L24.7471 9.81283L24.7413 9.81143L24.7329 9.80954L24.7296 9.80886L24.7267 9.80825L24.7211 9.80713L24.718 9.80653L24.7093 9.80496L24.7023 9.8038L24.6986 9.80323L24.6921 9.8023C24.6911 9.80214 24.69 9.80204 24.689 9.80194L24.6849 9.80143L24.6808 9.80089L24.6726 9.79993C24.6674 9.79932 24.662 9.79871 24.6568 9.79817C24.5369 9.7858 24.4264 9.79361 24.3263 9.8218ZM23.4334 6.46105C23.4295 6.46354 23.4257 6.46601 23.4219 6.46854C23.4158 6.45762 23.41 6.44785 23.4045 6.43952L23.4334 6.46105ZM23.3664 6.41115C23.3189 6.44285 23.2727 6.47684 23.228 6.51303C22.9987 6.69837 22.8042 6.94268 22.6445 7.24586C22.4549 7.60569 22.336 8.00617 22.2876 8.44723C22.2395 8.88579 22.2614 9.36406 22.3531 9.88198C22.4037 10.1405 22.4674 10.3867 22.5715 10.6295C22.6708 10.8611 22.796 11.0734 22.9473 11.2665C23.0991 11.4601 23.265 11.6211 23.445 11.7492C23.6256 11.8777 23.8202 11.9729 24.0289 12.0346C24.2374 12.0964 24.4544 12.1201 24.6799 12.1059L24.6884 12.1113C24.9132 12.097 25.1385 12.0397 25.3791 11.9503C25.3896 11.9468 25.3982 11.9437 25.4031 11.9418C25.4119 11.9386 25.4206 11.9351 25.4294 11.9314C25.4307 11.9309 25.432 11.9303 25.4333 11.9297C25.4507 11.9223 25.468 11.9143 25.4852 11.9056C25.489 11.913 25.4929 11.9203 25.4969 11.9275C25.514 11.9587 25.5315 11.9879 25.5494 12.0148C25.5506 12.0167 25.552 12.0186 25.5534 12.0204C25.5656 12.0381 25.5769 12.0539 25.5872 12.068C25.5989 12.0837 25.6116 12.1004 25.6254 12.118C25.692 12.2025 25.7632 12.2781 25.8389 12.3448C26.2478 12.6888 26.6225 12.7008 26.9603 12.3786C26.9619 12.377 26.9635 12.3755 26.965 12.3738C27.0995 12.2392 27.1964 12.063 27.2554 11.8452C27.3134 11.6312 27.3349 11.3764 27.3199 11.0808L27.3022 10.6732C27.3002 10.6302 27.2639 10.5968 27.2209 10.5985L26.8666 10.611C26.8233 10.6126 26.7895 10.6491 26.7912 10.6923L26.8067 10.968C26.8115 11.0515 26.8075 11.1353 26.7945 11.2192C26.7649 11.4054 26.703 11.5244 26.6091 11.5764C26.6074 11.5773 26.6054 11.5782 26.6037 11.5793C26.5938 11.5844 26.5836 11.5887 26.5733 11.5921C26.5618 11.5959 26.5504 11.5984 26.5397 11.5996C26.4795 11.6062 26.4146 11.5755 26.345 11.5073C26.3417 11.5041 26.3364 11.4988 26.3295 11.4919C26.3221 11.4843 26.3175 11.4797 26.3157 11.4777C26.2945 11.4555 26.2792 11.4372 26.2698 11.4231C26.2664 11.4178 26.2624 11.4131 26.258 11.409C26.2488 11.3993 26.2371 11.3847 26.2228 11.3654C26.2153 11.3551 26.2068 11.3432 26.1974 11.3295C26.2306 11.2906 26.2636 11.2492 26.2965 11.2053C26.3418 11.145 26.3882 11.0779 26.4358 11.0041C26.4363 11.0032 26.4368 11.0024 26.4374 11.0016C26.4379 11.0006 26.439 10.9994 26.4395 10.9984C26.4823 10.9261 26.5223 10.8498 26.5594 10.7693C26.5966 10.6888 26.6301 10.6056 26.6599 10.5198C26.8128 10.0794 26.8721 9.56289 26.838 8.97034C26.8127 8.52983 26.7382 8.13242 26.6146 7.7781C26.4904 7.42211 26.3165 7.1097 26.0928 6.84093C25.4308 6.04525 24.2318 5.83304 23.3664 6.41115Z" fill="url(#paint9_linear)"/>
<path fill-rule="evenodd" clip-rule="evenodd" d="M25.4032 17.318C25.5461 17.7518 25.728 18.2455 26.0495 18.5999C25.5426 18.4788 25.0159 18.5092 24.5263 18.6875C24.8049 18.2987 24.929 17.7873 25.0212 17.34C24.5955 17.7087 23.899 17.94 23.1857 17.3623C22.7069 16.9745 22.6032 16.269 22.8971 15.6827C23.3826 14.7144 24.3463 14.1887 24.9552 12.862C25.7122 14.1101 26.7298 14.5218 27.3232 15.428C27.6825 15.9767 27.6603 16.6894 27.2291 17.1296C26.5868 17.7853 25.8684 17.6355 25.4032 17.318Z" fill="url(#paint10_linear)"/>
<path d="M33.6489 11.4246L31.3745 11.1389C31.3314 11.1335 31.3008 11.0941 31.3062 11.051L31.3776 10.4828C31.383 10.4396 31.4224 10.409 31.4655 10.4145L31.9873 10.48C31.995 10.481 32.0011 10.4814 32.0056 10.4813C32.006 10.4811 32.0066 10.4813 32.0056 10.4813C32.012 10.4793 32.0191 10.4785 32.0261 10.4783C32.0507 10.4771 32.0705 10.4743 32.0853 10.4698C32.0945 10.467 32.1007 10.4641 32.1038 10.4612C32.1136 10.4516 32.125 10.4322 32.1379 10.4029C32.142 10.3937 32.145 10.3867 32.1469 10.3817C32.149 10.3765 32.1512 10.3708 32.1534 10.3647L32.1888 10.127C32.189 10.1256 32.1892 10.1242 32.1894 10.1228L32.231 9.88081L32.2313 9.87844L32.6479 6.56269C32.6593 6.47176 32.666 6.39912 32.6679 6.34474C32.6698 6.29378 32.6681 6.25826 32.6628 6.23821C32.6601 6.22764 32.6538 6.21835 32.6439 6.21041C32.6306 6.19962 32.6115 6.19071 32.5868 6.1837L32.0062 6.11074C31.963 6.10533 31.9325 6.06597 31.9379 6.02282L32.0102 5.44687C32.0157 5.40372 32.055 5.37314 32.0982 5.37855L34.2478 5.64861C34.2909 5.65402 34.3215 5.69338 34.3161 5.73653L34.2437 6.31252C34.2383 6.35566 34.1989 6.38621 34.1558 6.3808L33.7248 6.32664C33.6928 6.32264 33.6696 6.32686 33.655 6.33929C33.6379 6.35386 33.626 6.38128 33.6192 6.42151C33.6189 6.42407 33.6186 6.42666 33.6181 6.42923L33.6034 6.50215L33.3694 8.36473L35.0433 6.81279C35.0815 6.77845 35.1162 6.74242 35.1452 6.70642C35.1734 6.67151 35.1975 6.63554 35.2176 6.59852C35.2235 6.58542 35.2269 6.57367 35.2277 6.56339C35.2283 6.55564 35.2273 6.5484 35.2245 6.54167C35.2217 6.53469 35.2156 6.52899 35.2063 6.52457C35.2028 6.52294 35.1997 6.52169 35.1972 6.52082C35.194 6.5197 35.1899 6.51858 35.185 6.51743L35.1826 6.51675C35.1661 6.51237 35.1445 6.50785 35.1179 6.50333C35.0934 6.49914 35.0601 6.4944 35.018 6.48911L34.655 6.44351C34.6118 6.43809 34.5812 6.39873 34.5866 6.35559L34.659 5.7796C34.6644 5.73649 34.7038 5.7059 34.7469 5.71132L36.9023 5.98208C36.9454 5.98749 36.976 6.02685 36.9705 6.07L36.8982 6.64599C36.8927 6.6891 36.8534 6.71968 36.8103 6.71427L36.4132 6.6644C36.3864 6.66101 36.3643 6.66024 36.3471 6.66206C36.3422 6.66258 36.3394 6.6629 36.339 6.66296C36.3378 6.66315 36.3365 6.66347 36.3349 6.66383C36.302 6.67587 36.2586 6.70091 36.2048 6.73893C36.1963 6.74495 36.1843 6.75373 36.169 6.76523C36.1579 6.77355 36.1467 6.7822 36.1353 6.79114C36.1341 6.79223 36.1328 6.79328 36.1315 6.79434L35.8941 7.02039L34.7649 8.05192L36.0126 10.5628L36.0312 10.5968C36.0321 10.5981 36.033 10.5995 36.0338 10.601L36.1739 10.8451L36.1751 10.8471C36.2104 10.9066 36.2377 10.9488 36.2569 10.9738C36.261 10.979 36.2639 10.9827 36.2658 10.9849C36.2676 10.9869 36.2694 10.9888 36.2711 10.9905C36.2752 10.9944 36.283 10.9988 36.2943 11.0034C36.3096 11.0098 36.3303 11.0157 36.3563 11.0213C36.365 11.0231 36.3734 11.0267 36.3814 11.0316C36.3801 11.0312 36.3822 11.0321 36.3814 11.0316C36.3841 11.0324 36.3889 11.033 36.3944 11.0337L36.6099 11.0607C36.653 11.0662 36.6836 11.1055 36.6782 11.1487L36.6068 11.7169C36.6014 11.76 36.562 11.7906 36.5189 11.7852L34.2104 11.4951C34.1673 11.4897 34.1367 11.4504 34.1422 11.4072L34.2135 10.839C34.219 10.7959 34.2583 10.7653 34.3015 10.7707L34.5567 10.8028C34.5857 10.8064 34.6177 10.8099 34.6526 10.8132L34.6773 10.8154L34.7052 10.8179L34.7075 10.8181C34.7346 10.8205 34.7601 10.8228 34.7841 10.8251L34.7973 10.8265C34.8207 10.8288 34.8411 10.831 34.8585 10.8332C34.878 10.8332 34.894 10.8296 34.9064 10.8222C34.9084 10.821 34.9107 10.8194 34.9132 10.8174C34.9147 10.8163 34.9166 10.8146 34.9188 10.8124C34.9259 10.8054 34.9319 10.7967 34.9351 10.7882C34.9389 10.778 34.9405 10.7663 34.94 10.753L34.94 10.7505C34.9398 10.6737 34.9178 10.5929 34.874 10.5081L33.9707 8.77312L33.2302 9.471L33.133 10.2447C33.1172 10.3699 33.1127 10.462 33.1187 10.521C33.1199 10.5319 33.1211 10.5407 33.1225 10.5472C33.1237 10.5529 33.1251 10.5577 33.1266 10.5617C33.131 10.5728 33.1423 10.5839 33.1604 10.5947C33.1857 10.6098 33.2206 10.6225 33.2652 10.6327C33.2725 10.6337 33.2818 10.6356 33.2929 10.6385C33.2944 10.6388 33.296 10.6392 33.2975 10.6396L33.3031 10.6412L33.3063 10.6423C33.3077 10.6427 33.3091 10.643 33.3105 10.6435C33.3169 10.6454 33.3209 10.6466 33.3218 10.6468C33.3232 10.6471 33.3246 10.6475 33.3261 10.6478C33.3301 10.6488 33.3308 10.6491 33.3313 10.6492L33.74 10.7002C33.7831 10.7056 33.8137 10.745 33.8082 10.7881L33.7368 11.3563C33.7314 11.3994 33.6921 11.43 33.6489 11.4246Z" fill="url(#paint11_linear)"/>
<path fill-rule="evenodd" clip-rule="evenodd" d="M33.4862 16.66C33.5481 17.1125 33.6374 17.631 33.8892 18.0378C33.4127 17.8268 32.8892 17.761 32.3753 17.8476C32.7199 17.5158 32.9347 17.0354 33.1066 16.6123C32.621 16.8976 31.8942 16.9987 31.2975 16.3011C30.897 15.8329 30.923 15.1203 31.3184 14.5971C31.9715 13.7329 33.0146 13.3908 33.8541 12.1967C34.3721 13.5614 35.2982 14.1508 35.7172 15.1497C35.971 15.7545 35.8199 16.4513 35.316 16.8059C34.5654 17.3342 33.8861 17.0566 33.4862 16.66Z" fill="url(#paint12_linear)"/>
<path fill-rule="evenodd" clip-rule="evenodd" d="M41.6839 17.1271C41.6469 17.5824 41.6224 18.1079 41.7807 18.5594C41.3609 18.2508 40.8638 18.0738 40.3434 18.0477C40.7513 17.7978 41.0645 17.375 41.3235 16.9988C40.7878 17.1729 40.0563 17.1151 39.6238 16.3054C39.3336 15.7619 39.5124 15.0716 40.0112 14.6458C40.8351 13.9426 41.9273 13.8331 43.0043 12.8477C43.2163 14.292 43.9937 15.067 44.1878 16.1326C44.3054 16.7779 44.0078 17.4259 43.4394 17.6637C42.5926 18.018 41.989 17.6005 41.6839 17.1271Z" fill="url(#paint13_linear)"/>
<path d="M40.909 11.1208L41.1011 10.5812C41.1156 10.5403 41.1607 10.5189 41.2016 10.5335L41.3201 10.5757L41.3319 10.5799L41.3882 10.5924L40.909 11.1208ZM40.9831 11.1471L41.0413 10.9837L41.0422 10.9814L41.1752 10.6077L41.2937 10.6498L41.3099 10.6556L41.3717 10.6693C41.4488 10.68 41.5109 10.6675 41.5581 10.6315C41.6052 10.5956 41.6883 10.5016 41.8071 10.3496L44.7407 6.48942L45.457 6.74442L45.2591 11.5785C45.2567 11.7331 45.2638 11.8439 45.2804 11.9108C45.297 11.9778 45.3332 12.0351 45.3891 12.0828C45.4269 12.1129 45.4494 12.1292 45.4566 12.1318L45.5805 12.1759L45.3884 12.7154L43.7028 12.1153L43.8948 11.5758L44.2987 11.7196C44.3526 11.7388 44.3915 11.7373 44.4155 11.7154C44.4395 11.6934 44.4602 11.6466 44.4776 11.5751L44.4836 11.3025L44.5281 10.4107L42.8586 9.81632L42.3187 10.5318C42.2496 10.6237 42.207 10.6808 42.1911 10.7028C42.0883 10.8439 42.0943 10.9348 42.2092 10.9757L42.6185 11.1215L42.4264 11.6609L40.9831 11.1471ZM41.4081 10.5942C41.414 10.5945 41.4214 10.5945 41.4304 10.5942C41.4633 10.5931 41.49 10.5848 41.5104 10.5692C41.5299 10.5544 41.5587 10.5254 41.5969 10.4821C41.6382 10.4354 41.6875 10.3754 41.7446 10.3023L44.6783 6.44209C44.6995 6.41416 44.7357 6.40445 44.767 6.4156L45.4833 6.67054C45.5165 6.68239 45.5368 6.71435 45.5354 6.74786L45.3376 11.5799C45.3374 11.5969 45.3373 11.6174 45.3373 11.641C45.3374 11.6616 45.3376 11.6801 45.3379 11.6965C45.3399 11.7845 45.3461 11.8497 45.3566 11.892C45.3584 11.899 45.3605 11.9061 45.3629 11.9131C45.3653 11.9201 45.3679 11.9267 45.3705 11.9326C45.3855 11.9661 45.4088 11.9962 45.4401 12.0229C45.4483 12.0295 45.4561 12.0356 45.4626 12.0406C45.4703 12.0466 45.4763 12.0511 45.4805 12.0541C45.4852 12.0575 45.4799 12.0565 45.483 12.0576L45.6068 12.102C45.6476 12.1165 45.6688 12.1614 45.6543 12.2022L45.4626 12.7418C45.448 12.7828 45.403 12.8041 45.362 12.7895C45.3598 12.7887 45.3576 12.7879 45.3555 12.7869L43.6765 12.1892C43.6357 12.1747 43.6144 12.1298 43.6289 12.089L43.8207 11.5494C43.8353 11.5085 43.8803 11.4871 43.9212 11.5017L44.3251 11.6454C44.3428 11.6517 44.3561 11.6548 44.365 11.6546C44.3684 11.6501 44.3725 11.6426 44.3771 11.6321C44.3849 11.6144 44.3923 11.5922 44.3991 11.5653L44.405 11.3006C44.405 11.299 44.4051 11.2975 44.4053 11.296L44.4466 10.4652L42.8865 9.90981L42.3815 10.5789C42.3374 10.6376 42.3093 10.6752 42.2979 10.6904C42.2755 10.7205 42.261 10.7399 42.2547 10.7487C42.2144 10.8041 42.1949 10.8453 42.1967 10.8717C42.1974 10.8827 42.2104 10.8926 42.2356 10.9016L42.6448 11.0476C42.6856 11.0621 42.7069 11.107 42.6924 11.1478L42.5006 11.6874C42.486 11.7283 42.441 11.7497 42.4001 11.7351L40.9567 11.2213C40.9158 11.2067 40.8944 11.1617 40.909 11.1208L41.4081 10.5942ZM43.3495 9.29968L44.4798 9.70201L44.5741 7.65552L43.3495 9.29968ZM43.223 9.33818L44.5532 9.81171L44.6643 7.40314L43.223 9.33818Z" fill="url(#paint14_linear)"/>
<path fill-rule="evenodd" clip-rule="evenodd" d="M54.9542 38.0601C54.9912 37.6049 55.0157 37.0793 54.8574 36.6278C55.2772 36.9365 55.7743 37.1134 56.2947 37.1395C55.8867 37.3894 55.5736 37.8122 55.3146 38.1884C55.8502 38.0143 56.5818 38.0722 57.0143 38.8818C57.3045 39.4253 57.1257 40.1156 56.6269 40.5414C55.803 41.2446 54.7108 41.3541 53.6338 42.3395C53.4218 40.8952 52.6444 40.1202 52.4503 39.0546C52.3327 38.4093 52.6303 37.7613 53.1987 37.5235C54.0455 37.1693 54.6491 37.5867 54.9542 38.0601Z" fill="url(#paint15_linear)"/>
<path d="M55.7289 44.0665L55.5368 44.606C55.5223 44.647 55.4772 44.6684 55.4363 44.6538L55.3178 44.6116L55.306 44.6074L55.2497 44.595L55.7289 44.0665ZM55.6547 44.0401L55.5966 44.2036L55.5958 44.2059L55.4627 44.5797L55.3281 44.5317L55.3096 44.5276L55.2662 44.518C55.1891 44.5072 55.127 44.5198 55.0798 44.5558C55.0326 44.5917 54.9496 44.6857 54.8308 44.8377L51.8972 48.6979L51.1809 48.4429L51.3788 43.6088C51.3812 43.4542 51.3741 43.3434 51.3575 43.2764C51.3409 43.2095 51.3047 43.1522 51.2488 43.1045C51.211 43.0744 51.1885 43.0581 51.1813 43.0555L51.0575 43.0114L51.2495 42.4719L52.9351 43.072L52.7431 43.6115L52.3392 43.4677C52.2853 43.4485 52.2464 43.4499 52.2224 43.4719C52.1984 43.4939 52.1777 43.5407 52.1603 43.6122L52.1543 43.8848L52.1098 44.7766L53.7793 45.371L54.3192 44.6555C54.3883 44.5636 54.4309 44.5065 54.4468 44.4845C54.5496 44.3434 54.5436 44.2524 54.4287 44.2115L54.0194 44.0659L54.2115 43.5263L55.6547 44.0401ZM55.2298 44.5931C55.2239 44.5928 55.2164 44.5928 55.2075 44.5931C55.1746 44.5942 55.1479 44.6026 55.1275 44.6181C55.108 44.6329 55.0792 44.6619 55.041 44.7051C54.9997 44.7519 54.9504 44.8119 54.8933 44.885L51.9596 48.7452C51.9385 48.7731 51.9022 48.7829 51.8709 48.7717L51.1546 48.5168C51.1214 48.5049 51.1011 48.4729 51.1026 48.4395L51.3003 43.6074C51.3006 43.5904 51.3006 43.5699 51.3006 43.5463C51.3005 43.5257 51.3003 43.5072 51.2999 43.4908C51.298 43.4028 51.2918 43.3376 51.2813 43.2953C51.2795 43.2884 51.2774 43.2812 51.275 43.2742C51.2726 43.2672 51.27 43.2606 51.2673 43.2547C51.2524 43.2212 51.2292 43.1911 51.1978 43.1644C51.1896 43.1578 51.1818 43.1517 51.1753 43.1467C51.1676 43.1407 51.1616 43.1362 51.1575 43.1332C51.1527 43.1297 51.158 43.1307 51.1549 43.1297L51.0312 43.0853C50.9904 43.0708 50.9691 43.0259 50.9836 42.9851L51.1754 42.4455C51.1899 42.4046 51.235 42.3832 51.2759 42.3978C51.2781 42.3986 51.2803 42.3994 51.2824 42.4004L52.9614 42.9981C53.0022 43.0127 53.0235 43.0575 53.009 43.0983L52.8172 43.6379C52.8027 43.6788 52.7576 43.7002 52.7167 43.6856L52.3128 43.5419C52.2951 43.5356 52.2818 43.5325 52.2729 43.5327C52.2695 43.5372 52.2654 43.5447 52.2608 43.5553C52.253 43.5729 52.2456 43.5951 52.2388 43.622L52.2329 43.8867C52.2329 43.8883 52.2328 43.8898 52.2326 43.8913L52.1913 44.7221L53.7514 45.2775L54.2563 44.6084C54.3004 44.5497 54.3286 44.5122 54.34 44.4969C54.3625 44.4669 54.3768 44.4474 54.3832 44.4386C54.4236 44.3833 54.443 44.342 54.4412 44.3156C54.4405 44.3047 54.4275 44.2947 54.4023 44.2857L53.9931 44.1397C53.9523 44.1252 53.931 44.0803 53.9456 44.0396L54.1373 43.5C54.1519 43.459 54.1969 43.4376 54.2379 43.4522L55.6811 43.966C55.7221 43.9806 55.7435 44.0256 55.7289 44.0665L55.2298 44.5931ZM53.2884 45.8876L52.1582 45.4853L52.0638 47.5318L53.2884 45.8876ZM53.415 45.8491L52.0848 45.3756L51.9737 47.7841L53.415 45.8491Z" fill="url(#paint16_linear)"/>
<path fill-rule="evenodd" clip-rule="evenodd" d="M47.505 31.6693C47.3977 32.9878 47.3269 34.51 47.7854 35.8175C46.5693 34.9237 45.1297 34.4112 43.6224 34.3355C44.804 33.6119 45.711 32.3873 46.461 31.2977C44.9097 31.8019 42.7909 31.6344 41.5384 29.2893C40.6977 27.7153 41.2155 25.7161 42.6604 24.4828C45.0465 22.4461 48.21 22.1291 51.329 19.2751C51.943 23.458 54.1946 25.7027 54.7569 28.7891C55.0974 30.6579 54.2355 32.5346 52.5893 33.2233C50.1367 34.2494 48.3886 33.0404 47.505 31.6693Z" fill="url(#paint17_linear)"/>
<defs>
<linearGradient id="paint0_linear" x1="22.6614" y1="2.427" x2="22.6614" y2="49.0317" gradientUnits="userSpaceOnUse">
<stop stop-color="#2DD2FF"/>
<stop offset="1" stop-color="#2CFEE1"/>
</linearGradient>
<linearGradient id="paint1_linear" x1="29.0771" y1="2.20459" x2="29.0771" y2="46.8977" gradientUnits="userSpaceOnUse">
<stop stop-color="#2DD2FF"/>
<stop offset="1" stop-color="#2CFEE1"/>
</linearGradient>
<linearGradient id="paint2_linear" x1="35.6327" y1="3.79395" x2="35.6327" y2="44.959" gradientUnits="userSpaceOnUse">
<stop stop-color="#2DD2FF"/>
<stop offset="1" stop-color="#2CFEE1"/>
</linearGradient>
<linearGradient id="paint3_linear" x1="42.2658" y1="4.177" x2="42.2658" y2="46.7393" gradientUnits="userSpaceOnUse">
<stop stop-color="#2DD2FF"/>
<stop offset="1" stop-color="#2CFEE1"/>
</linearGradient>
<linearGradient id="paint4_linear" x1="48.3627" y1="4.68774" x2="48.3627" y2="50.5272" gradientUnits="userSpaceOnUse">
<stop stop-color="#2DD2FF"/>
<stop offset="1" stop-color="#2CFEE1"/>
</linearGradient>
<linearGradient id="paint5_linear" x1="30.2951" y1="5.37793" x2="30.2951" y2="48.7762" gradientUnits="userSpaceOnUse">
<stop stop-color="#2DD2FF"/>
<stop offset="1" stop-color="#2CFEE1"/>
</linearGradient>
<linearGradient id="paint6_linear" x1="30.2951" y1="5.37793" x2="30.2951" y2="48.7762" gradientUnits="userSpaceOnUse">
<stop stop-color="#2DD2FF"/>
<stop offset="1" stop-color="#2CFEE1"/>
</linearGradient>
<linearGradient id="paint7_linear" x1="30.2951" y1="5.37793" x2="30.2951" y2="48.7762" gradientUnits="userSpaceOnUse">
<stop stop-color="#2DD2FF"/>
<stop offset="1" stop-color="#2CFEE1"/>
</linearGradient>
<linearGradient id="paint8_linear" x1="30.2951" y1="5.37793" x2="30.2951" y2="48.7762" gradientUnits="userSpaceOnUse">
<stop stop-color="#2DD2FF"/>
<stop offset="1" stop-color="#2CFEE1"/>
</linearGradient>
<linearGradient id="paint9_linear" x1="30.2951" y1="5.37793" x2="30.2951" y2="48.7762" gradientUnits="userSpaceOnUse">
<stop stop-color="#2DD2FF"/>
<stop offset="1" stop-color="#2CFEE1"/>
</linearGradient>
<linearGradient id="paint10_linear" x1="30.2951" y1="5.37793" x2="30.2951" y2="48.7762" gradientUnits="userSpaceOnUse">
<stop stop-color="#2DD2FF"/>
<stop offset="1" stop-color="#2CFEE1"/>
</linearGradient>
<linearGradient id="paint11_linear" x1="30.2951" y1="5.37793" x2="30.2951" y2="48.7762" gradientUnits="userSpaceOnUse">
<stop stop-color="#2DD2FF"/>
<stop offset="1" stop-color="#2CFEE1"/>
</linearGradient>
<linearGradient id="paint12_linear" x1="30.2951" y1="5.37793" x2="30.2951" y2="48.7762" gradientUnits="userSpaceOnUse">
<stop stop-color="#2DD2FF"/>
<stop offset="1" stop-color="#2CFEE1"/>
</linearGradient>
<linearGradient id="paint13_linear" x1="30.2951" y1="5.37793" x2="30.2951" y2="48.7762" gradientUnits="userSpaceOnUse">
<stop stop-color="#2DD2FF"/>
<stop offset="1" stop-color="#2CFEE1"/>
</linearGradient>
<linearGradient id="paint14_linear" x1="30.2951" y1="5.37793" x2="30.2951" y2="48.7762" gradientUnits="userSpaceOnUse">
<stop stop-color="#2DD2FF"/>
<stop offset="1" stop-color="#2CFEE1"/>
</linearGradient>
<linearGradient id="paint15_linear" x1="30.2951" y1="5.37793" x2="30.2951" y2="48.7762" gradientUnits="userSpaceOnUse">
<stop stop-color="#2DD2FF"/>
<stop offset="1" stop-color="#2CFEE1"/>
</linearGradient>
<linearGradient id="paint16_linear" x1="30.2951" y1="5.37793" x2="30.2951" y2="48.7762" gradientUnits="userSpaceOnUse">
<stop stop-color="#2DD2FF"/>
<stop offset="1" stop-color="#2CFEE1"/>
</linearGradient>
<linearGradient id="paint17_linear" x1="30.2951" y1="5.37793" x2="30.2951" y2="48.7762" gradientUnits="userSpaceOnUse">
<stop stop-color="#2DD2FF"/>
<stop offset="1" stop-color="#2CFEE1"/>
</linearGradient>
</defs>
</svg>
