<svg width="37" height="37" viewBox="0 0 37 37" fill="none" xmlns="http://www.w3.org/2000/svg">
<path opacity="0.25" fill-rule="evenodd" clip-rule="evenodd" d="M18.5 36C28.165 36 36 28.165 36 18.5C36 8.83502 28.165 1 18.5 1C8.83502 1 1 8.83502 1 18.5C1 28.165 8.83502 36 18.5 36Z" stroke="#2DD2FF" stroke-width="1.5"/>
<path d="M24.9487 12.3739L22.2323 25.1842C22.0272 26.0881 21.493 26.3132 20.7337 25.8876L16.5945 22.8375L14.5976 24.7586C14.3764 24.9797 14.1919 25.1643 13.7657 25.1643L14.0633 20.9492L21.7341 14.0179C22.0678 13.7208 21.6614 13.5556 21.2159 13.8533L11.7327 19.8248L7.65015 18.5466C6.76227 18.2695 6.7462 17.6588 7.83531 17.2325L23.8036 11.0803C24.543 10.8032 25.1898 11.2449 24.9487 12.3745V12.3739Z" fill="#2DD2FF"/>
</svg>
