<svg width="37" height="37" viewBox="0 0 37 37" fill="none" xmlns="http://www.w3.org/2000/svg">
<path opacity="0.25" fill-rule="evenodd" clip-rule="evenodd" d="M18.5 36C28.165 36 36 28.165 36 18.5C36 8.83502 28.165 1 18.5 1C8.83502 1 1 8.83502 1 18.5C1 28.165 8.83502 36 18.5 36Z" stroke="#2DD2FF" stroke-width="1.5"/>
<path d="M25.9205 14.4406C25.828 14.3361 25.6788 14.3098 25.5565 14.3743C25.4804 14.4143 25.3374 14.4669 25.1675 14.5189C25.3818 14.2259 25.5541 13.8978 25.6301 13.6029C25.663 13.4759 25.6149 13.3419 25.5102 13.2661C25.4055 13.191 25.2662 13.191 25.1615 13.2661C24.9965 13.3844 24.2003 13.7401 23.697 13.8553C22.5593 12.8304 21.2354 12.7239 19.8592 13.5504C18.7404 14.2221 18.4969 15.5882 18.5444 16.4209C15.9837 16.1674 14.3919 14.7762 13.496 13.6249C13.4333 13.5441 13.3322 13.5015 13.2373 13.5078C13.1374 13.5153 13.0474 13.5723 12.9962 13.6605C12.5726 14.3962 12.4551 15.2095 12.6578 16.0127C12.7686 16.451 12.9621 16.8373 13.1867 17.1503C13.079 17.0958 12.9749 17.0276 12.8769 16.9462C12.7868 16.8698 12.6608 16.8554 12.5543 16.9061C12.4484 16.9581 12.3808 17.0683 12.3808 17.1891C12.3808 18.5684 13.2196 19.4887 14.003 19.9695C13.8764 19.9539 13.7443 19.9251 13.611 19.8831C13.4966 19.8475 13.3724 19.8831 13.2933 19.9758C13.2141 20.0678 13.1953 20.1993 13.2446 20.3114C13.6846 21.3125 14.5186 22.0012 15.5503 22.251C14.6494 22.795 13.4436 23.0618 12.3394 22.9309C12.1964 22.9102 12.0601 23.0035 12.015 23.145C11.97 23.2865 12.029 23.4418 12.155 23.5144C13.8301 24.4817 15.3445 24.8273 16.6532 24.8273C18.5578 24.8273 20.0278 24.096 20.9226 23.4844C23.3348 21.8378 24.8382 18.8814 24.6289 16.2362C25.0154 15.9426 25.5936 15.4004 25.9521 14.8175C26.0264 14.6998 26.013 14.5446 25.9205 14.4406Z" fill="#2DD2FF"/>
</svg>
